<svg class="main-svg" xmlns="http://www.w3.org/2000/svg" xmlns:xlink="http://www.w3.org/1999/xlink" width="700" height="500" style="" viewBox="0 0 700 500"><rect x="0" y="0" width="700" height="500" style="fill: rgb(255, 255, 255); fill-opacity: 1;"/><defs id="defs-deb611"><g class="clips"><clipPath id="clipdeb611xyplot" class="plotclip"><rect width="463" height="320"/></clipPath><clipPath class="axesclip" id="clipdeb611x"><rect x="80" y="0" width="463" height="500"/></clipPath><clipPath class="axesclip" id="clipdeb611y"><rect x="0" y="100" width="700" height="320"/></clipPath><clipPath class="axesclip" id="clipdeb611xy"><rect x="80" y="100" width="463" height="320"/></clipPath></g><g class="gradients"/><g class="patterns"/></defs><g class="bglayer"><rect class="bg" x="80" y="100" width="463" height="320" style="fill: rgb(229, 236, 246); fill-opacity: 1; stroke-width: 0;"/></g><g class="layer-below"><g class="imagelayer"/><g class="shapelayer"/></g><g class="cartesianlayer"><g class="subplot xy"><g class="layer-subplot"><g class="shapelayer"/><g class="imagelayer"/></g><g class="gridlayer"><g class="x"><path class="xgrid crisp" transform="translate(138.6,0)" d="M0,100v320" style="stroke: rgb(255, 255, 255); stroke-opacity: 1; stroke-width: 1px;"/><path class="xgrid crisp" transform="translate(227.93,0)" d="M0,100v320" style="stroke: rgb(255, 255, 255); stroke-opacity: 1; stroke-width: 1px;"/><path class="xgrid crisp" transform="translate(314.38,0)" d="M0,100v320" style="stroke: rgb(255, 255, 255); stroke-opacity: 1; stroke-width: 1px;"/><path class="xgrid crisp" transform="translate(403.71,0)" d="M0,100v320" style="stroke: rgb(255, 255, 255); stroke-opacity: 1; stroke-width: 1px;"/><path class="xgrid crisp" transform="translate(493.05,0)" d="M0,100v320" style="stroke: rgb(255, 255, 255); stroke-opacity: 1; stroke-width: 1px;"/></g><g class="y"><path class="ygrid crisp" transform="translate(0,416.05)" d="M80,0h463" style="stroke: rgb(255, 255, 255); stroke-opacity: 1; stroke-width: 1px;"/><path class="ygrid crisp" transform="translate(0,363.69)" d="M80,0h463" style="stroke: rgb(255, 255, 255); stroke-opacity: 1; stroke-width: 1px;"/><path class="ygrid crisp" transform="translate(0,311.32)" d="M80,0h463" style="stroke: rgb(255, 255, 255); stroke-opacity: 1; stroke-width: 1px;"/><path class="ygrid crisp" transform="translate(0,258.96000000000004)" d="M80,0h463" style="stroke: rgb(255, 255, 255); stroke-opacity: 1; stroke-width: 1px;"/><path class="ygrid crisp" transform="translate(0,206.6)" d="M80,0h463" style="stroke: rgb(255, 255, 255); stroke-opacity: 1; stroke-width: 1px;"/><path class="ygrid crisp" transform="translate(0,154.24)" d="M80,0h463" style="stroke: rgb(255, 255, 255); stroke-opacity: 1; stroke-width: 1px;"/><path class="ygrid crisp" transform="translate(0,101.88)" d="M80,0h463" style="stroke: rgb(255, 255, 255); stroke-opacity: 1; stroke-width: 1px;"/></g></g><g class="zerolinelayer"/><path class="xlines-below"/><path class="ylines-below"/><g class="overlines-below"/><g class="xaxislayer-below"/><g class="yaxislayer-below"/><g class="overaxes-below"/><g class="plot" transform="translate(80,100)" clip-path="url(#clipdeb611xyplot)"><g class="scatterlayer mlayer"><g class="trace scatter tracea99541" style="stroke-miterlimit: 2; opacity: 1;"><g class="fills"/><g class="errorbars"/><g class="lines"><path class="js-line" d="M26.9,300.25L29.78,295.43L32.66,288.85L35.55,287.96L38.43,277.1L47.07,268.21L49.95,275.44L52.84,273.47L55.72,276.53L58.6,276.66L67.24,273.36L70.13,273.85L73.01,272.72L75.89,267.03L78.77,271.28L87.42,267.91L90.3,260.69L96.06,254.09L98.94,241.15L107.59,226.98L110.47,230.03L113.35,229.23L116.23,214.47L119.11,206.26L127.76,145.95L130.64,149.31L133.52,139.14L139.29,99.27L147.93,49.74L150.81,68.9L153.69,46.98L156.58,38.58L159.46,42.67L168.1,73.65L170.98,146.66L173.87,123.38L176.75,125.71L179.63,141.46L188.27,151.95L194.04,112.36L196.92,108.5L199.8,87.2L208.45,76.82L211.33,101.87L214.21,98.22L219.97,116.07L228.62,87.23L231.5,83.16L234.38,109.22L237.26,114.67L240.15,151.12L248.79,154.25L251.67,131.87L254.55,122.85L257.44,156.97L260.32,150.05L268.96,176.55L271.84,180.69L274.73,171.53L277.61,197.23L280.49,194.27L289.13,211.36L292.02,191.15L297.78,123.88L309.31,109.77L312.19,112.64L315.07,113.83L320.83,129.23L329.48,54.36L335.24,112.82L338.12,125.09L341,144.85L349.65,128.53L352.53,125.24L355.41,103.34L358.29,142.44L361.18,132.99L372.7,142.99L375.58,161.24L378.47,160.92L381.35,188.34L389.99,195.62L392.87,201.69L395.76,191.74L398.64,248.45L401.52,239.42L410.16,192.1L413.05,194.96L415.93,208.36L418.81,215.96L421.69,199.11L430.34,207.48L433.22,199.8L436.1,194.57" style="vector-effect: non-scaling-stroke; fill: none; stroke: rgb(198, 148, 246); stroke-opacity: 1; stroke-width: 1px; opacity: 1;"/></g><g class="points"><path class="point" transform="translate(26.9,300.25)" d="M3,0A3,3 0 1,1 0,-3A3,3 0 0,1 3,0Z" style="opacity: 1; stroke-width: 0px; fill: rgb(198, 148, 246); fill-opacity: 1;"/><path class="point" transform="translate(29.78,295.43)" d="M3,0A3,3 0 1,1 0,-3A3,3 0 0,1 3,0Z" style="opacity: 1; stroke-width: 0px; fill: rgb(198, 148, 246); fill-opacity: 1;"/><path class="point" transform="translate(32.66,288.85)" d="M3,0A3,3 0 1,1 0,-3A3,3 0 0,1 3,0Z" style="opacity: 1; stroke-width: 0px; fill: rgb(198, 148, 246); fill-opacity: 1;"/><path class="point" transform="translate(35.55,287.96)" d="M3,0A3,3 0 1,1 0,-3A3,3 0 0,1 3,0Z" style="opacity: 1; stroke-width: 0px; fill: rgb(198, 148, 246); fill-opacity: 1;"/><path class="point" transform="translate(38.43,277.1)" d="M3,0A3,3 0 1,1 0,-3A3,3 0 0,1 3,0Z" style="opacity: 1; stroke-width: 0px; fill: rgb(198, 148, 246); fill-opacity: 1;"/><path class="point" transform="translate(47.07,268.21)" d="M3,0A3,3 0 1,1 0,-3A3,3 0 0,1 3,0Z" style="opacity: 1; stroke-width: 0px; fill: rgb(198, 148, 246); fill-opacity: 1;"/><path class="point" transform="translate(49.95,275.44)" d="M3,0A3,3 0 1,1 0,-3A3,3 0 0,1 3,0Z" style="opacity: 1; stroke-width: 0px; fill: rgb(198, 148, 246); fill-opacity: 1;"/><path class="point" transform="translate(52.84,273.47)" d="M3,0A3,3 0 1,1 0,-3A3,3 0 0,1 3,0Z" style="opacity: 1; stroke-width: 0px; fill: rgb(198, 148, 246); fill-opacity: 1;"/><path class="point" transform="translate(55.72,276.53)" d="M3,0A3,3 0 1,1 0,-3A3,3 0 0,1 3,0Z" style="opacity: 1; stroke-width: 0px; fill: rgb(198, 148, 246); fill-opacity: 1;"/><path class="point" transform="translate(58.6,276.66)" d="M3,0A3,3 0 1,1 0,-3A3,3 0 0,1 3,0Z" style="opacity: 1; stroke-width: 0px; fill: rgb(198, 148, 246); fill-opacity: 1;"/><path class="point" transform="translate(67.24,273.36)" d="M3,0A3,3 0 1,1 0,-3A3,3 0 0,1 3,0Z" style="opacity: 1; stroke-width: 0px; fill: rgb(198, 148, 246); fill-opacity: 1;"/><path class="point" transform="translate(70.13,273.85)" d="M3,0A3,3 0 1,1 0,-3A3,3 0 0,1 3,0Z" style="opacity: 1; stroke-width: 0px; fill: rgb(198, 148, 246); fill-opacity: 1;"/><path class="point" transform="translate(73.01,272.72)" d="M3,0A3,3 0 1,1 0,-3A3,3 0 0,1 3,0Z" style="opacity: 1; stroke-width: 0px; fill: rgb(198, 148, 246); fill-opacity: 1;"/><path class="point" transform="translate(75.89,267.03)" d="M3,0A3,3 0 1,1 0,-3A3,3 0 0,1 3,0Z" style="opacity: 1; stroke-width: 0px; fill: rgb(198, 148, 246); fill-opacity: 1;"/><path class="point" transform="translate(78.77,271.28)" d="M3,0A3,3 0 1,1 0,-3A3,3 0 0,1 3,0Z" style="opacity: 1; stroke-width: 0px; fill: rgb(198, 148, 246); fill-opacity: 1;"/><path class="point" transform="translate(87.42,267.91)" d="M3,0A3,3 0 1,1 0,-3A3,3 0 0,1 3,0Z" style="opacity: 1; stroke-width: 0px; fill: rgb(198, 148, 246); fill-opacity: 1;"/><path class="point" transform="translate(90.3,260.69)" d="M3,0A3,3 0 1,1 0,-3A3,3 0 0,1 3,0Z" style="opacity: 1; stroke-width: 0px; fill: rgb(198, 148, 246); fill-opacity: 1;"/><path class="point" transform="translate(93.18,257.88)" d="M3,0A3,3 0 1,1 0,-3A3,3 0 0,1 3,0Z" style="opacity: 1; stroke-width: 0px; fill: rgb(198, 148, 246); fill-opacity: 1;"/><path class="point" transform="translate(96.06,254.09)" d="M3,0A3,3 0 1,1 0,-3A3,3 0 0,1 3,0Z" style="opacity: 1; stroke-width: 0px; fill: rgb(198, 148, 246); fill-opacity: 1;"/><path class="point" transform="translate(98.94,241.15)" d="M3,0A3,3 0 1,1 0,-3A3,3 0 0,1 3,0Z" style="opacity: 1; stroke-width: 0px; fill: rgb(198, 148, 246); fill-opacity: 1;"/><path class="point" transform="translate(107.59,226.98)" d="M3,0A3,3 0 1,1 0,-3A3,3 0 0,1 3,0Z" style="opacity: 1; stroke-width: 0px; fill: rgb(198, 148, 246); fill-opacity: 1;"/><path class="point" transform="translate(110.47,230.03)" d="M3,0A3,3 0 1,1 0,-3A3,3 0 0,1 3,0Z" style="opacity: 1; stroke-width: 0px; fill: rgb(198, 148, 246); fill-opacity: 1;"/><path class="point" transform="translate(113.35,229.23)" d="M3,0A3,3 0 1,1 0,-3A3,3 0 0,1 3,0Z" style="opacity: 1; stroke-width: 0px; fill: rgb(198, 148, 246); fill-opacity: 1;"/><path class="point" transform="translate(116.23,214.47)" d="M3,0A3,3 0 1,1 0,-3A3,3 0 0,1 3,0Z" style="opacity: 1; stroke-width: 0px; fill: rgb(198, 148, 246); fill-opacity: 1;"/><path class="point" transform="translate(119.11,206.26)" d="M3,0A3,3 0 1,1 0,-3A3,3 0 0,1 3,0Z" style="opacity: 1; stroke-width: 0px; fill: rgb(198, 148, 246); fill-opacity: 1;"/><path class="point" transform="translate(127.76,145.95)" d="M3,0A3,3 0 1,1 0,-3A3,3 0 0,1 3,0Z" style="opacity: 1; stroke-width: 0px; fill: rgb(198, 148, 246); fill-opacity: 1;"/><path class="point" transform="translate(130.64,149.31)" d="M3,0A3,3 0 1,1 0,-3A3,3 0 0,1 3,0Z" style="opacity: 1; stroke-width: 0px; fill: rgb(198, 148, 246); fill-opacity: 1;"/><path class="point" transform="translate(133.52,139.14)" d="M3,0A3,3 0 1,1 0,-3A3,3 0 0,1 3,0Z" style="opacity: 1; stroke-width: 0px; fill: rgb(198, 148, 246); fill-opacity: 1;"/><path class="point" transform="translate(136.4,118.62)" d="M3,0A3,3 0 1,1 0,-3A3,3 0 0,1 3,0Z" style="opacity: 1; stroke-width: 0px; fill: rgb(198, 148, 246); fill-opacity: 1;"/><path class="point" transform="translate(139.29,99.27)" d="M3,0A3,3 0 1,1 0,-3A3,3 0 0,1 3,0Z" style="opacity: 1; stroke-width: 0px; fill: rgb(198, 148, 246); fill-opacity: 1;"/><path class="point" transform="translate(147.93,49.74)" d="M3,0A3,3 0 1,1 0,-3A3,3 0 0,1 3,0Z" style="opacity: 1; stroke-width: 0px; fill: rgb(198, 148, 246); fill-opacity: 1;"/><path class="point" transform="translate(150.81,68.9)" d="M3,0A3,3 0 1,1 0,-3A3,3 0 0,1 3,0Z" style="opacity: 1; stroke-width: 0px; fill: rgb(198, 148, 246); fill-opacity: 1;"/><path class="point" transform="translate(153.69,46.98)" d="M3,0A3,3 0 1,1 0,-3A3,3 0 0,1 3,0Z" style="opacity: 1; stroke-width: 0px; fill: rgb(198, 148, 246); fill-opacity: 1;"/><path class="point" transform="translate(156.58,38.58)" d="M3,0A3,3 0 1,1 0,-3A3,3 0 0,1 3,0Z" style="opacity: 1; stroke-width: 0px; fill: rgb(198, 148, 246); fill-opacity: 1;"/><path class="point" transform="translate(159.46,42.67)" d="M3,0A3,3 0 1,1 0,-3A3,3 0 0,1 3,0Z" style="opacity: 1; stroke-width: 0px; fill: rgb(198, 148, 246); fill-opacity: 1;"/><path class="point" transform="translate(168.1,73.65)" d="M3,0A3,3 0 1,1 0,-3A3,3 0 0,1 3,0Z" style="opacity: 1; stroke-width: 0px; fill: rgb(198, 148, 246); fill-opacity: 1;"/><path class="point" transform="translate(170.98,146.66)" d="M3,0A3,3 0 1,1 0,-3A3,3 0 0,1 3,0Z" style="opacity: 1; stroke-width: 0px; fill: rgb(198, 148, 246); fill-opacity: 1;"/><path class="point" transform="translate(173.87,123.38)" d="M3,0A3,3 0 1,1 0,-3A3,3 0 0,1 3,0Z" style="opacity: 1; stroke-width: 0px; fill: rgb(198, 148, 246); fill-opacity: 1;"/><path class="point" transform="translate(176.75,125.71)" d="M3,0A3,3 0 1,1 0,-3A3,3 0 0,1 3,0Z" style="opacity: 1; stroke-width: 0px; fill: rgb(198, 148, 246); fill-opacity: 1;"/><path class="point" transform="translate(179.63,141.46)" d="M3,0A3,3 0 1,1 0,-3A3,3 0 0,1 3,0Z" style="opacity: 1; stroke-width: 0px; fill: rgb(198, 148, 246); fill-opacity: 1;"/><path class="point" transform="translate(188.27,151.95)" d="M3,0A3,3 0 1,1 0,-3A3,3 0 0,1 3,0Z" style="opacity: 1; stroke-width: 0px; fill: rgb(198, 148, 246); fill-opacity: 1;"/><path class="point" transform="translate(191.16,130.31)" d="M3,0A3,3 0 1,1 0,-3A3,3 0 0,1 3,0Z" style="opacity: 1; stroke-width: 0px; fill: rgb(198, 148, 246); fill-opacity: 1;"/><path class="point" transform="translate(194.04,112.36)" d="M3,0A3,3 0 1,1 0,-3A3,3 0 0,1 3,0Z" style="opacity: 1; stroke-width: 0px; fill: rgb(198, 148, 246); fill-opacity: 1;"/><path class="point" transform="translate(196.92,108.5)" d="M3,0A3,3 0 1,1 0,-3A3,3 0 0,1 3,0Z" style="opacity: 1; stroke-width: 0px; fill: rgb(198, 148, 246); fill-opacity: 1;"/><path class="point" transform="translate(199.8,87.2)" d="M3,0A3,3 0 1,1 0,-3A3,3 0 0,1 3,0Z" style="opacity: 1; stroke-width: 0px; fill: rgb(198, 148, 246); fill-opacity: 1;"/><path class="point" transform="translate(208.45,76.82)" d="M3,0A3,3 0 1,1 0,-3A3,3 0 0,1 3,0Z" style="opacity: 1; stroke-width: 0px; fill: rgb(198, 148, 246); fill-opacity: 1;"/><path class="point" transform="translate(211.33,101.87)" d="M3,0A3,3 0 1,1 0,-3A3,3 0 0,1 3,0Z" style="opacity: 1; stroke-width: 0px; fill: rgb(198, 148, 246); fill-opacity: 1;"/><path class="point" transform="translate(214.21,98.22)" d="M3,0A3,3 0 1,1 0,-3A3,3 0 0,1 3,0Z" style="opacity: 1; stroke-width: 0px; fill: rgb(198, 148, 246); fill-opacity: 1;"/><path class="point" transform="translate(219.97,116.07)" d="M3,0A3,3 0 1,1 0,-3A3,3 0 0,1 3,0Z" style="opacity: 1; stroke-width: 0px; fill: rgb(198, 148, 246); fill-opacity: 1;"/><path class="point" transform="translate(228.62,87.23)" d="M3,0A3,3 0 1,1 0,-3A3,3 0 0,1 3,0Z" style="opacity: 1; stroke-width: 0px; fill: rgb(198, 148, 246); fill-opacity: 1;"/><path class="point" transform="translate(231.5,83.16)" d="M3,0A3,3 0 1,1 0,-3A3,3 0 0,1 3,0Z" style="opacity: 1; stroke-width: 0px; fill: rgb(198, 148, 246); fill-opacity: 1;"/><path class="point" transform="translate(234.38,109.22)" d="M3,0A3,3 0 1,1 0,-3A3,3 0 0,1 3,0Z" style="opacity: 1; stroke-width: 0px; fill: rgb(198, 148, 246); fill-opacity: 1;"/><path class="point" transform="translate(237.26,114.67)" d="M3,0A3,3 0 1,1 0,-3A3,3 0 0,1 3,0Z" style="opacity: 1; stroke-width: 0px; fill: rgb(198, 148, 246); fill-opacity: 1;"/><path class="point" transform="translate(240.15,151.12)" d="M3,0A3,3 0 1,1 0,-3A3,3 0 0,1 3,0Z" style="opacity: 1; stroke-width: 0px; fill: rgb(198, 148, 246); fill-opacity: 1;"/><path class="point" transform="translate(248.79,154.25)" d="M3,0A3,3 0 1,1 0,-3A3,3 0 0,1 3,0Z" style="opacity: 1; stroke-width: 0px; fill: rgb(198, 148, 246); fill-opacity: 1;"/><path class="point" transform="translate(251.67,131.87)" d="M3,0A3,3 0 1,1 0,-3A3,3 0 0,1 3,0Z" style="opacity: 1; stroke-width: 0px; fill: rgb(198, 148, 246); fill-opacity: 1;"/><path class="point" transform="translate(254.55,122.85)" d="M3,0A3,3 0 1,1 0,-3A3,3 0 0,1 3,0Z" style="opacity: 1; stroke-width: 0px; fill: rgb(198, 148, 246); fill-opacity: 1;"/><path class="point" transform="translate(257.44,156.97)" d="M3,0A3,3 0 1,1 0,-3A3,3 0 0,1 3,0Z" style="opacity: 1; stroke-width: 0px; fill: rgb(198, 148, 246); fill-opacity: 1;"/><path class="point" transform="translate(260.32,150.05)" d="M3,0A3,3 0 1,1 0,-3A3,3 0 0,1 3,0Z" style="opacity: 1; stroke-width: 0px; fill: rgb(198, 148, 246); fill-opacity: 1;"/><path class="point" transform="translate(268.96,176.55)" d="M3,0A3,3 0 1,1 0,-3A3,3 0 0,1 3,0Z" style="opacity: 1; stroke-width: 0px; fill: rgb(198, 148, 246); fill-opacity: 1;"/><path class="point" transform="translate(271.84,180.69)" d="M3,0A3,3 0 1,1 0,-3A3,3 0 0,1 3,0Z" style="opacity: 1; stroke-width: 0px; fill: rgb(198, 148, 246); fill-opacity: 1;"/><path class="point" transform="translate(274.73,171.53)" d="M3,0A3,3 0 1,1 0,-3A3,3 0 0,1 3,0Z" style="opacity: 1; stroke-width: 0px; fill: rgb(198, 148, 246); fill-opacity: 1;"/><path class="point" transform="translate(277.61,197.23)" d="M3,0A3,3 0 1,1 0,-3A3,3 0 0,1 3,0Z" style="opacity: 1; stroke-width: 0px; fill: rgb(198, 148, 246); fill-opacity: 1;"/><path class="point" transform="translate(280.49,194.27)" d="M3,0A3,3 0 1,1 0,-3A3,3 0 0,1 3,0Z" style="opacity: 1; stroke-width: 0px; fill: rgb(198, 148, 246); fill-opacity: 1;"/><path class="point" transform="translate(289.13,211.36)" d="M3,0A3,3 0 1,1 0,-3A3,3 0 0,1 3,0Z" style="opacity: 1; stroke-width: 0px; fill: rgb(198, 148, 246); fill-opacity: 1;"/><path class="point" transform="translate(292.02,191.15)" d="M3,0A3,3 0 1,1 0,-3A3,3 0 0,1 3,0Z" style="opacity: 1; stroke-width: 0px; fill: rgb(198, 148, 246); fill-opacity: 1;"/><path class="point" transform="translate(294.9,154.32)" d="M3,0A3,3 0 1,1 0,-3A3,3 0 0,1 3,0Z" style="opacity: 1; stroke-width: 0px; fill: rgb(198, 148, 246); fill-opacity: 1;"/><path class="point" transform="translate(297.78,123.88)" d="M3,0A3,3 0 1,1 0,-3A3,3 0 0,1 3,0Z" style="opacity: 1; stroke-width: 0px; fill: rgb(198, 148, 246); fill-opacity: 1;"/><path class="point" transform="translate(309.31,109.77)" d="M3,0A3,3 0 1,1 0,-3A3,3 0 0,1 3,0Z" style="opacity: 1; stroke-width: 0px; fill: rgb(198, 148, 246); fill-opacity: 1;"/><path class="point" transform="translate(312.19,112.64)" d="M3,0A3,3 0 1,1 0,-3A3,3 0 0,1 3,0Z" style="opacity: 1; stroke-width: 0px; fill: rgb(198, 148, 246); fill-opacity: 1;"/><path class="point" transform="translate(315.07,113.83)" d="M3,0A3,3 0 1,1 0,-3A3,3 0 0,1 3,0Z" style="opacity: 1; stroke-width: 0px; fill: rgb(198, 148, 246); fill-opacity: 1;"/><path class="point" transform="translate(317.95,122.13)" d="M3,0A3,3 0 1,1 0,-3A3,3 0 0,1 3,0Z" style="opacity: 1; stroke-width: 0px; fill: rgb(198, 148, 246); fill-opacity: 1;"/><path class="point" transform="translate(320.83,129.23)" d="M3,0A3,3 0 1,1 0,-3A3,3 0 0,1 3,0Z" style="opacity: 1; stroke-width: 0px; fill: rgb(198, 148, 246); fill-opacity: 1;"/><path class="point" transform="translate(329.48,54.36)" d="M3,0A3,3 0 1,1 0,-3A3,3 0 0,1 3,0Z" style="opacity: 1; stroke-width: 0px; fill: rgb(198, 148, 246); fill-opacity: 1;"/><path class="point" transform="translate(332.36,80.64)" d="M3,0A3,3 0 1,1 0,-3A3,3 0 0,1 3,0Z" style="opacity: 1; stroke-width: 0px; fill: rgb(198, 148, 246); fill-opacity: 1;"/><path class="point" transform="translate(335.24,112.82)" d="M3,0A3,3 0 1,1 0,-3A3,3 0 0,1 3,0Z" style="opacity: 1; stroke-width: 0px; fill: rgb(198, 148, 246); fill-opacity: 1;"/><path class="point" transform="translate(338.12,125.09)" d="M3,0A3,3 0 1,1 0,-3A3,3 0 0,1 3,0Z" style="opacity: 1; stroke-width: 0px; fill: rgb(198, 148, 246); fill-opacity: 1;"/><path class="point" transform="translate(341,144.85)" d="M3,0A3,3 0 1,1 0,-3A3,3 0 0,1 3,0Z" style="opacity: 1; stroke-width: 0px; fill: rgb(198, 148, 246); fill-opacity: 1;"/><path class="point" transform="translate(349.65,128.53)" d="M3,0A3,3 0 1,1 0,-3A3,3 0 0,1 3,0Z" style="opacity: 1; stroke-width: 0px; fill: rgb(198, 148, 246); fill-opacity: 1;"/><path class="point" transform="translate(352.53,125.24)" d="M3,0A3,3 0 1,1 0,-3A3,3 0 0,1 3,0Z" style="opacity: 1; stroke-width: 0px; fill: rgb(198, 148, 246); fill-opacity: 1;"/><path class="point" transform="translate(355.41,103.34)" d="M3,0A3,3 0 1,1 0,-3A3,3 0 0,1 3,0Z" style="opacity: 1; stroke-width: 0px; fill: rgb(198, 148, 246); fill-opacity: 1;"/><path class="point" transform="translate(358.29,142.44)" d="M3,0A3,3 0 1,1 0,-3A3,3 0 0,1 3,0Z" style="opacity: 1; stroke-width: 0px; fill: rgb(198, 148, 246); fill-opacity: 1;"/><path class="point" transform="translate(361.18,132.99)" d="M3,0A3,3 0 1,1 0,-3A3,3 0 0,1 3,0Z" style="opacity: 1; stroke-width: 0px; fill: rgb(198, 148, 246); fill-opacity: 1;"/><path class="point" transform="translate(372.7,142.99)" d="M3,0A3,3 0 1,1 0,-3A3,3 0 0,1 3,0Z" style="opacity: 1; stroke-width: 0px; fill: rgb(198, 148, 246); fill-opacity: 1;"/><path class="point" transform="translate(375.58,161.24)" d="M3,0A3,3 0 1,1 0,-3A3,3 0 0,1 3,0Z" style="opacity: 1; stroke-width: 0px; fill: rgb(198, 148, 246); fill-opacity: 1;"/><path class="point" transform="translate(378.47,160.92)" d="M3,0A3,3 0 1,1 0,-3A3,3 0 0,1 3,0Z" style="opacity: 1; stroke-width: 0px; fill: rgb(198, 148, 246); fill-opacity: 1;"/><path class="point" transform="translate(381.35,188.34)" d="M3,0A3,3 0 1,1 0,-3A3,3 0 0,1 3,0Z" style="opacity: 1; stroke-width: 0px; fill: rgb(198, 148, 246); fill-opacity: 1;"/><path class="point" transform="translate(389.99,195.62)" d="M3,0A3,3 0 1,1 0,-3A3,3 0 0,1 3,0Z" style="opacity: 1; stroke-width: 0px; fill: rgb(198, 148, 246); fill-opacity: 1;"/><path class="point" transform="translate(392.87,201.69)" d="M3,0A3,3 0 1,1 0,-3A3,3 0 0,1 3,0Z" style="opacity: 1; stroke-width: 0px; fill: rgb(198, 148, 246); fill-opacity: 1;"/><path class="point" transform="translate(395.76,191.74)" d="M3,0A3,3 0 1,1 0,-3A3,3 0 0,1 3,0Z" style="opacity: 1; stroke-width: 0px; fill: rgb(198, 148, 246); fill-opacity: 1;"/><path class="point" transform="translate(398.64,248.45)" d="M3,0A3,3 0 1,1 0,-3A3,3 0 0,1 3,0Z" style="opacity: 1; stroke-width: 0px; fill: rgb(198, 148, 246); fill-opacity: 1;"/><path class="point" transform="translate(401.52,239.42)" d="M3,0A3,3 0 1,1 0,-3A3,3 0 0,1 3,0Z" style="opacity: 1; stroke-width: 0px; fill: rgb(198, 148, 246); fill-opacity: 1;"/><path class="point" transform="translate(410.16,192.1)" d="M3,0A3,3 0 1,1 0,-3A3,3 0 0,1 3,0Z" style="opacity: 1; stroke-width: 0px; fill: rgb(198, 148, 246); fill-opacity: 1;"/><path class="point" transform="translate(413.05,194.96)" d="M3,0A3,3 0 1,1 0,-3A3,3 0 0,1 3,0Z" style="opacity: 1; stroke-width: 0px; fill: rgb(198, 148, 246); fill-opacity: 1;"/><path class="point" transform="translate(415.93,208.36)" d="M3,0A3,3 0 1,1 0,-3A3,3 0 0,1 3,0Z" style="opacity: 1; stroke-width: 0px; fill: rgb(198, 148, 246); fill-opacity: 1;"/><path class="point" transform="translate(418.81,215.96)" d="M3,0A3,3 0 1,1 0,-3A3,3 0 0,1 3,0Z" style="opacity: 1; stroke-width: 0px; fill: rgb(198, 148, 246); fill-opacity: 1;"/><path class="point" transform="translate(421.69,199.11)" d="M3,0A3,3 0 1,1 0,-3A3,3 0 0,1 3,0Z" style="opacity: 1; stroke-width: 0px; fill: rgb(198, 148, 246); fill-opacity: 1;"/><path class="point" transform="translate(430.34,207.48)" d="M3,0A3,3 0 1,1 0,-3A3,3 0 0,1 3,0Z" style="opacity: 1; stroke-width: 0px; fill: rgb(198, 148, 246); fill-opacity: 1;"/><path class="point" transform="translate(433.22,199.8)" d="M3,0A3,3 0 1,1 0,-3A3,3 0 0,1 3,0Z" style="opacity: 1; stroke-width: 0px; fill: rgb(198, 148, 246); fill-opacity: 1;"/><path class="point" transform="translate(436.1,194.57)" d="M3,0A3,3 0 1,1 0,-3A3,3 0 0,1 3,0Z" style="opacity: 1; stroke-width: 0px; fill: rgb(198, 148, 246); fill-opacity: 1;"/></g><g class="text"/></g><g class="trace scatter trace33bd70" style="stroke-miterlimit: 2; opacity: 1;"><g class="fills"/><g class="errorbars"/><g class="lines"><path class="js-line" d="M26.9,279.61L29.78,287.96L32.66,276.73L35.55,278.59L38.43,275.42L47.07,274.09L49.95,270.02L52.84,274.76L55.72,270.57L58.6,288.66L67.24,266.55L70.13,259.44L73.01,268.83L75.89,256.2L78.77,252.05L87.42,265.2L90.3,252.01L93.18,245.64L96.06,228.59L98.94,227.79L107.59,231.09L113.35,199.37L116.23,150.46L127.76,129.39L130.64,114.87L133.52,93L136.4,28.63L139.29,46.42L147.93,49.72L153.69,19.75L156.58,61.79L168.1,126.84L170.98,114.58L173.87,121.25L176.75,132.63L179.63,83.25L188.27,130.13L191.16,87.84L194.04,78.56L196.92,80.61L199.8,130.22L208.45,168.64L211.33,91.92L214.21,89.6L219.97,99.53L228.62,119.79L231.5,93.18L234.38,135.73L237.26,151.34L240.15,111.72L248.79,112.99L251.67,177.9L254.55,146.35L257.44,193.87L260.32,156.27L268.96,168.85L271.84,219.03L274.73,199.52L277.61,240.82L280.49,192.7L289.13,131.26L292.02,113.57L294.9,144.81L297.78,106.29L309.31,143.62L312.19,127.86L315.07,119.54L317.95,86.28L320.83,77.03L329.48,132.83L332.36,102.24L335.24,104.51L338.12,95.79L341,111.11L349.65,105.23L352.53,142.35L355.41,140.53L358.29,148.94L361.18,89.01L372.7,181.2L375.58,213.77L378.47,205.38L381.35,217.22L389.99,176.41L392.87,246.11L395.76,222.07L398.64,225.87L401.52,186.27L410.16,216.6L413.05,231.41L415.93,198.75L418.81,232.55L421.69,207.37L433.22,199.47L436.1,284.69" style="vector-effect: non-scaling-stroke; fill: none; stroke: rgb(241, 104, 241); stroke-opacity: 1; stroke-width: 1px; opacity: 1;"/></g><g class="points"><path class="point" transform="translate(26.9,279.61)" d="M3,0A3,3 0 1,1 0,-3A3,3 0 0,1 3,0Z" style="opacity: 1; stroke-width: 0px; fill: rgb(241, 104, 241); fill-opacity: 1;"/><path class="point" transform="translate(29.78,287.96)" d="M3,0A3,3 0 1,1 0,-3A3,3 0 0,1 3,0Z" style="opacity: 1; stroke-width: 0px; fill: rgb(241, 104, 241); fill-opacity: 1;"/><path class="point" transform="translate(32.66,276.73)" d="M3,0A3,3 0 1,1 0,-3A3,3 0 0,1 3,0Z" style="opacity: 1; stroke-width: 0px; fill: rgb(241, 104, 241); fill-opacity: 1;"/><path class="point" transform="translate(35.55,278.59)" d="M3,0A3,3 0 1,1 0,-3A3,3 0 0,1 3,0Z" style="opacity: 1; stroke-width: 0px; fill: rgb(241, 104, 241); fill-opacity: 1;"/><path class="point" transform="translate(38.43,275.42)" d="M3,0A3,3 0 1,1 0,-3A3,3 0 0,1 3,0Z" style="opacity: 1; stroke-width: 0px; fill: rgb(241, 104, 241); fill-opacity: 1;"/><path class="point" transform="translate(47.07,274.09)" d="M3,0A3,3 0 1,1 0,-3A3,3 0 0,1 3,0Z" style="opacity: 1; stroke-width: 0px; fill: rgb(241, 104, 241); fill-opacity: 1;"/><path class="point" transform="translate(49.95,270.02)" d="M3,0A3,3 0 1,1 0,-3A3,3 0 0,1 3,0Z" style="opacity: 1; stroke-width: 0px; fill: rgb(241, 104, 241); fill-opacity: 1;"/><path class="point" transform="translate(52.84,274.76)" d="M3,0A3,3 0 1,1 0,-3A3,3 0 0,1 3,0Z" style="opacity: 1; stroke-width: 0px; fill: rgb(241, 104, 241); fill-opacity: 1;"/><path class="point" transform="translate(55.72,270.57)" d="M3,0A3,3 0 1,1 0,-3A3,3 0 0,1 3,0Z" style="opacity: 1; stroke-width: 0px; fill: rgb(241, 104, 241); fill-opacity: 1;"/><path class="point" transform="translate(58.6,288.66)" d="M3,0A3,3 0 1,1 0,-3A3,3 0 0,1 3,0Z" style="opacity: 1; stroke-width: 0px; fill: rgb(241, 104, 241); fill-opacity: 1;"/><path class="point" transform="translate(67.24,266.55)" d="M3,0A3,3 0 1,1 0,-3A3,3 0 0,1 3,0Z" style="opacity: 1; stroke-width: 0px; fill: rgb(241, 104, 241); fill-opacity: 1;"/><path class="point" transform="translate(70.13,259.44)" d="M3,0A3,3 0 1,1 0,-3A3,3 0 0,1 3,0Z" style="opacity: 1; stroke-width: 0px; fill: rgb(241, 104, 241); fill-opacity: 1;"/><path class="point" transform="translate(73.01,268.83)" d="M3,0A3,3 0 1,1 0,-3A3,3 0 0,1 3,0Z" style="opacity: 1; stroke-width: 0px; fill: rgb(241, 104, 241); fill-opacity: 1;"/><path class="point" transform="translate(75.89,256.2)" d="M3,0A3,3 0 1,1 0,-3A3,3 0 0,1 3,0Z" style="opacity: 1; stroke-width: 0px; fill: rgb(241, 104, 241); fill-opacity: 1;"/><path class="point" transform="translate(78.77,252.05)" d="M3,0A3,3 0 1,1 0,-3A3,3 0 0,1 3,0Z" style="opacity: 1; stroke-width: 0px; fill: rgb(241, 104, 241); fill-opacity: 1;"/><path class="point" transform="translate(87.42,265.2)" d="M3,0A3,3 0 1,1 0,-3A3,3 0 0,1 3,0Z" style="opacity: 1; stroke-width: 0px; fill: rgb(241, 104, 241); fill-opacity: 1;"/><path class="point" transform="translate(90.3,252.01)" d="M3,0A3,3 0 1,1 0,-3A3,3 0 0,1 3,0Z" style="opacity: 1; stroke-width: 0px; fill: rgb(241, 104, 241); fill-opacity: 1;"/><path class="point" transform="translate(93.18,245.64)" d="M3,0A3,3 0 1,1 0,-3A3,3 0 0,1 3,0Z" style="opacity: 1; stroke-width: 0px; fill: rgb(241, 104, 241); fill-opacity: 1;"/><path class="point" transform="translate(96.06,228.59)" d="M3,0A3,3 0 1,1 0,-3A3,3 0 0,1 3,0Z" style="opacity: 1; stroke-width: 0px; fill: rgb(241, 104, 241); fill-opacity: 1;"/><path class="point" transform="translate(98.94,227.79)" d="M3,0A3,3 0 1,1 0,-3A3,3 0 0,1 3,0Z" style="opacity: 1; stroke-width: 0px; fill: rgb(241, 104, 241); fill-opacity: 1;"/><path class="point" transform="translate(107.59,231.09)" d="M3,0A3,3 0 1,1 0,-3A3,3 0 0,1 3,0Z" style="opacity: 1; stroke-width: 0px; fill: rgb(241, 104, 241); fill-opacity: 1;"/><path class="point" transform="translate(110.47,213.79)" d="M3,0A3,3 0 1,1 0,-3A3,3 0 0,1 3,0Z" style="opacity: 1; stroke-width: 0px; fill: rgb(241, 104, 241); fill-opacity: 1;"/><path class="point" transform="translate(113.35,199.37)" d="M3,0A3,3 0 1,1 0,-3A3,3 0 0,1 3,0Z" style="opacity: 1; stroke-width: 0px; fill: rgb(241, 104, 241); fill-opacity: 1;"/><path class="point" transform="translate(116.23,150.46)" d="M3,0A3,3 0 1,1 0,-3A3,3 0 0,1 3,0Z" style="opacity: 1; stroke-width: 0px; fill: rgb(241, 104, 241); fill-opacity: 1;"/><path class="point" transform="translate(119.11,145.3)" d="M3,0A3,3 0 1,1 0,-3A3,3 0 0,1 3,0Z" style="opacity: 1; stroke-width: 0px; fill: rgb(241, 104, 241); fill-opacity: 1;"/><path class="point" transform="translate(127.76,129.39)" d="M3,0A3,3 0 1,1 0,-3A3,3 0 0,1 3,0Z" style="opacity: 1; stroke-width: 0px; fill: rgb(241, 104, 241); fill-opacity: 1;"/><path class="point" transform="translate(130.64,114.87)" d="M3,0A3,3 0 1,1 0,-3A3,3 0 0,1 3,0Z" style="opacity: 1; stroke-width: 0px; fill: rgb(241, 104, 241); fill-opacity: 1;"/><path class="point" transform="translate(133.52,93)" d="M3,0A3,3 0 1,1 0,-3A3,3 0 0,1 3,0Z" style="opacity: 1; stroke-width: 0px; fill: rgb(241, 104, 241); fill-opacity: 1;"/><path class="point" transform="translate(136.4,28.63)" d="M3,0A3,3 0 1,1 0,-3A3,3 0 0,1 3,0Z" style="opacity: 1; stroke-width: 0px; fill: rgb(241, 104, 241); fill-opacity: 1;"/><path class="point" transform="translate(139.29,46.42)" d="M3,0A3,3 0 1,1 0,-3A3,3 0 0,1 3,0Z" style="opacity: 1; stroke-width: 0px; fill: rgb(241, 104, 241); fill-opacity: 1;"/><path class="point" transform="translate(147.93,49.72)" d="M3,0A3,3 0 1,1 0,-3A3,3 0 0,1 3,0Z" style="opacity: 1; stroke-width: 0px; fill: rgb(241, 104, 241); fill-opacity: 1;"/><path class="point" transform="translate(150.81,36.45)" d="M3,0A3,3 0 1,1 0,-3A3,3 0 0,1 3,0Z" style="opacity: 1; stroke-width: 0px; fill: rgb(241, 104, 241); fill-opacity: 1;"/><path class="point" transform="translate(153.69,19.75)" d="M3,0A3,3 0 1,1 0,-3A3,3 0 0,1 3,0Z" style="opacity: 1; stroke-width: 0px; fill: rgb(241, 104, 241); fill-opacity: 1;"/><path class="point" transform="translate(156.58,61.79)" d="M3,0A3,3 0 1,1 0,-3A3,3 0 0,1 3,0Z" style="opacity: 1; stroke-width: 0px; fill: rgb(241, 104, 241); fill-opacity: 1;"/><path class="point" transform="translate(159.46,78.66)" d="M3,0A3,3 0 1,1 0,-3A3,3 0 0,1 3,0Z" style="opacity: 1; stroke-width: 0px; fill: rgb(241, 104, 241); fill-opacity: 1;"/><path class="point" transform="translate(168.1,126.84)" d="M3,0A3,3 0 1,1 0,-3A3,3 0 0,1 3,0Z" style="opacity: 1; stroke-width: 0px; fill: rgb(241, 104, 241); fill-opacity: 1;"/><path class="point" transform="translate(170.98,114.58)" d="M3,0A3,3 0 1,1 0,-3A3,3 0 0,1 3,0Z" style="opacity: 1; stroke-width: 0px; fill: rgb(241, 104, 241); fill-opacity: 1;"/><path class="point" transform="translate(173.87,121.25)" d="M3,0A3,3 0 1,1 0,-3A3,3 0 0,1 3,0Z" style="opacity: 1; stroke-width: 0px; fill: rgb(241, 104, 241); fill-opacity: 1;"/><path class="point" transform="translate(176.75,132.63)" d="M3,0A3,3 0 1,1 0,-3A3,3 0 0,1 3,0Z" style="opacity: 1; stroke-width: 0px; fill: rgb(241, 104, 241); fill-opacity: 1;"/><path class="point" transform="translate(179.63,83.25)" d="M3,0A3,3 0 1,1 0,-3A3,3 0 0,1 3,0Z" style="opacity: 1; stroke-width: 0px; fill: rgb(241, 104, 241); fill-opacity: 1;"/><path class="point" transform="translate(188.27,130.13)" d="M3,0A3,3 0 1,1 0,-3A3,3 0 0,1 3,0Z" style="opacity: 1; stroke-width: 0px; fill: rgb(241, 104, 241); fill-opacity: 1;"/><path class="point" transform="translate(191.16,87.84)" d="M3,0A3,3 0 1,1 0,-3A3,3 0 0,1 3,0Z" style="opacity: 1; stroke-width: 0px; fill: rgb(241, 104, 241); fill-opacity: 1;"/><path class="point" transform="translate(194.04,78.56)" d="M3,0A3,3 0 1,1 0,-3A3,3 0 0,1 3,0Z" style="opacity: 1; stroke-width: 0px; fill: rgb(241, 104, 241); fill-opacity: 1;"/><path class="point" transform="translate(196.92,80.61)" d="M3,0A3,3 0 1,1 0,-3A3,3 0 0,1 3,0Z" style="opacity: 1; stroke-width: 0px; fill: rgb(241, 104, 241); fill-opacity: 1;"/><path class="point" transform="translate(199.8,130.22)" d="M3,0A3,3 0 1,1 0,-3A3,3 0 0,1 3,0Z" style="opacity: 1; stroke-width: 0px; fill: rgb(241, 104, 241); fill-opacity: 1;"/><path class="point" transform="translate(208.45,168.64)" d="M3,0A3,3 0 1,1 0,-3A3,3 0 0,1 3,0Z" style="opacity: 1; stroke-width: 0px; fill: rgb(241, 104, 241); fill-opacity: 1;"/><path class="point" transform="translate(211.33,91.92)" d="M3,0A3,3 0 1,1 0,-3A3,3 0 0,1 3,0Z" style="opacity: 1; stroke-width: 0px; fill: rgb(241, 104, 241); fill-opacity: 1;"/><path class="point" transform="translate(214.21,89.6)" d="M3,0A3,3 0 1,1 0,-3A3,3 0 0,1 3,0Z" style="opacity: 1; stroke-width: 0px; fill: rgb(241, 104, 241); fill-opacity: 1;"/><path class="point" transform="translate(219.97,99.53)" d="M3,0A3,3 0 1,1 0,-3A3,3 0 0,1 3,0Z" style="opacity: 1; stroke-width: 0px; fill: rgb(241, 104, 241); fill-opacity: 1;"/><path class="point" transform="translate(228.62,119.79)" d="M3,0A3,3 0 1,1 0,-3A3,3 0 0,1 3,0Z" style="opacity: 1; stroke-width: 0px; fill: rgb(241, 104, 241); fill-opacity: 1;"/><path class="point" transform="translate(231.5,93.18)" d="M3,0A3,3 0 1,1 0,-3A3,3 0 0,1 3,0Z" style="opacity: 1; stroke-width: 0px; fill: rgb(241, 104, 241); fill-opacity: 1;"/><path class="point" transform="translate(234.38,135.73)" d="M3,0A3,3 0 1,1 0,-3A3,3 0 0,1 3,0Z" style="opacity: 1; stroke-width: 0px; fill: rgb(241, 104, 241); fill-opacity: 1;"/><path class="point" transform="translate(237.26,151.34)" d="M3,0A3,3 0 1,1 0,-3A3,3 0 0,1 3,0Z" style="opacity: 1; stroke-width: 0px; fill: rgb(241, 104, 241); fill-opacity: 1;"/><path class="point" transform="translate(240.15,111.72)" d="M3,0A3,3 0 1,1 0,-3A3,3 0 0,1 3,0Z" style="opacity: 1; stroke-width: 0px; fill: rgb(241, 104, 241); fill-opacity: 1;"/><path class="point" transform="translate(248.79,112.99)" d="M3,0A3,3 0 1,1 0,-3A3,3 0 0,1 3,0Z" style="opacity: 1; stroke-width: 0px; fill: rgb(241, 104, 241); fill-opacity: 1;"/><path class="point" transform="translate(251.67,177.9)" d="M3,0A3,3 0 1,1 0,-3A3,3 0 0,1 3,0Z" style="opacity: 1; stroke-width: 0px; fill: rgb(241, 104, 241); fill-opacity: 1;"/><path class="point" transform="translate(254.55,146.35)" d="M3,0A3,3 0 1,1 0,-3A3,3 0 0,1 3,0Z" style="opacity: 1; stroke-width: 0px; fill: rgb(241, 104, 241); fill-opacity: 1;"/><path class="point" transform="translate(257.44,193.87)" d="M3,0A3,3 0 1,1 0,-3A3,3 0 0,1 3,0Z" style="opacity: 1; stroke-width: 0px; fill: rgb(241, 104, 241); fill-opacity: 1;"/><path class="point" transform="translate(260.32,156.27)" d="M3,0A3,3 0 1,1 0,-3A3,3 0 0,1 3,0Z" style="opacity: 1; stroke-width: 0px; fill: rgb(241, 104, 241); fill-opacity: 1;"/><path class="point" transform="translate(268.96,168.85)" d="M3,0A3,3 0 1,1 0,-3A3,3 0 0,1 3,0Z" style="opacity: 1; stroke-width: 0px; fill: rgb(241, 104, 241); fill-opacity: 1;"/><path class="point" transform="translate(271.84,219.03)" d="M3,0A3,3 0 1,1 0,-3A3,3 0 0,1 3,0Z" style="opacity: 1; stroke-width: 0px; fill: rgb(241, 104, 241); fill-opacity: 1;"/><path class="point" transform="translate(274.73,199.52)" d="M3,0A3,3 0 1,1 0,-3A3,3 0 0,1 3,0Z" style="opacity: 1; stroke-width: 0px; fill: rgb(241, 104, 241); fill-opacity: 1;"/><path class="point" transform="translate(277.61,240.82)" d="M3,0A3,3 0 1,1 0,-3A3,3 0 0,1 3,0Z" style="opacity: 1; stroke-width: 0px; fill: rgb(241, 104, 241); fill-opacity: 1;"/><path class="point" transform="translate(280.49,192.7)" d="M3,0A3,3 0 1,1 0,-3A3,3 0 0,1 3,0Z" style="opacity: 1; stroke-width: 0px; fill: rgb(241, 104, 241); fill-opacity: 1;"/><path class="point" transform="translate(289.13,131.26)" d="M3,0A3,3 0 1,1 0,-3A3,3 0 0,1 3,0Z" style="opacity: 1; stroke-width: 0px; fill: rgb(241, 104, 241); fill-opacity: 1;"/><path class="point" transform="translate(292.02,113.57)" d="M3,0A3,3 0 1,1 0,-3A3,3 0 0,1 3,0Z" style="opacity: 1; stroke-width: 0px; fill: rgb(241, 104, 241); fill-opacity: 1;"/><path class="point" transform="translate(294.9,144.81)" d="M3,0A3,3 0 1,1 0,-3A3,3 0 0,1 3,0Z" style="opacity: 1; stroke-width: 0px; fill: rgb(241, 104, 241); fill-opacity: 1;"/><path class="point" transform="translate(297.78,106.29)" d="M3,0A3,3 0 1,1 0,-3A3,3 0 0,1 3,0Z" style="opacity: 1; stroke-width: 0px; fill: rgb(241, 104, 241); fill-opacity: 1;"/><path class="point" transform="translate(309.31,143.62)" d="M3,0A3,3 0 1,1 0,-3A3,3 0 0,1 3,0Z" style="opacity: 1; stroke-width: 0px; fill: rgb(241, 104, 241); fill-opacity: 1;"/><path class="point" transform="translate(312.19,127.86)" d="M3,0A3,3 0 1,1 0,-3A3,3 0 0,1 3,0Z" style="opacity: 1; stroke-width: 0px; fill: rgb(241, 104, 241); fill-opacity: 1;"/><path class="point" transform="translate(315.07,119.54)" d="M3,0A3,3 0 1,1 0,-3A3,3 0 0,1 3,0Z" style="opacity: 1; stroke-width: 0px; fill: rgb(241, 104, 241); fill-opacity: 1;"/><path class="point" transform="translate(317.95,86.28)" d="M3,0A3,3 0 1,1 0,-3A3,3 0 0,1 3,0Z" style="opacity: 1; stroke-width: 0px; fill: rgb(241, 104, 241); fill-opacity: 1;"/><path class="point" transform="translate(320.83,77.03)" d="M3,0A3,3 0 1,1 0,-3A3,3 0 0,1 3,0Z" style="opacity: 1; stroke-width: 0px; fill: rgb(241, 104, 241); fill-opacity: 1;"/><path class="point" transform="translate(329.48,132.83)" d="M3,0A3,3 0 1,1 0,-3A3,3 0 0,1 3,0Z" style="opacity: 1; stroke-width: 0px; fill: rgb(241, 104, 241); fill-opacity: 1;"/><path class="point" transform="translate(332.36,102.24)" d="M3,0A3,3 0 1,1 0,-3A3,3 0 0,1 3,0Z" style="opacity: 1; stroke-width: 0px; fill: rgb(241, 104, 241); fill-opacity: 1;"/><path class="point" transform="translate(335.24,104.51)" d="M3,0A3,3 0 1,1 0,-3A3,3 0 0,1 3,0Z" style="opacity: 1; stroke-width: 0px; fill: rgb(241, 104, 241); fill-opacity: 1;"/><path class="point" transform="translate(338.12,95.79)" d="M3,0A3,3 0 1,1 0,-3A3,3 0 0,1 3,0Z" style="opacity: 1; stroke-width: 0px; fill: rgb(241, 104, 241); fill-opacity: 1;"/><path class="point" transform="translate(341,111.11)" d="M3,0A3,3 0 1,1 0,-3A3,3 0 0,1 3,0Z" style="opacity: 1; stroke-width: 0px; fill: rgb(241, 104, 241); fill-opacity: 1;"/><path class="point" transform="translate(349.65,105.23)" d="M3,0A3,3 0 1,1 0,-3A3,3 0 0,1 3,0Z" style="opacity: 1; stroke-width: 0px; fill: rgb(241, 104, 241); fill-opacity: 1;"/><path class="point" transform="translate(352.53,142.35)" d="M3,0A3,3 0 1,1 0,-3A3,3 0 0,1 3,0Z" style="opacity: 1; stroke-width: 0px; fill: rgb(241, 104, 241); fill-opacity: 1;"/><path class="point" transform="translate(355.41,140.53)" d="M3,0A3,3 0 1,1 0,-3A3,3 0 0,1 3,0Z" style="opacity: 1; stroke-width: 0px; fill: rgb(241, 104, 241); fill-opacity: 1;"/><path class="point" transform="translate(358.29,148.94)" d="M3,0A3,3 0 1,1 0,-3A3,3 0 0,1 3,0Z" style="opacity: 1; stroke-width: 0px; fill: rgb(241, 104, 241); fill-opacity: 1;"/><path class="point" transform="translate(361.18,89.01)" d="M3,0A3,3 0 1,1 0,-3A3,3 0 0,1 3,0Z" style="opacity: 1; stroke-width: 0px; fill: rgb(241, 104, 241); fill-opacity: 1;"/><path class="point" transform="translate(372.7,181.2)" d="M3,0A3,3 0 1,1 0,-3A3,3 0 0,1 3,0Z" style="opacity: 1; stroke-width: 0px; fill: rgb(241, 104, 241); fill-opacity: 1;"/><path class="point" transform="translate(375.58,213.77)" d="M3,0A3,3 0 1,1 0,-3A3,3 0 0,1 3,0Z" style="opacity: 1; stroke-width: 0px; fill: rgb(241, 104, 241); fill-opacity: 1;"/><path class="point" transform="translate(378.47,205.38)" d="M3,0A3,3 0 1,1 0,-3A3,3 0 0,1 3,0Z" style="opacity: 1; stroke-width: 0px; fill: rgb(241, 104, 241); fill-opacity: 1;"/><path class="point" transform="translate(381.35,217.22)" d="M3,0A3,3 0 1,1 0,-3A3,3 0 0,1 3,0Z" style="opacity: 1; stroke-width: 0px; fill: rgb(241, 104, 241); fill-opacity: 1;"/><path class="point" transform="translate(389.99,176.41)" d="M3,0A3,3 0 1,1 0,-3A3,3 0 0,1 3,0Z" style="opacity: 1; stroke-width: 0px; fill: rgb(241, 104, 241); fill-opacity: 1;"/><path class="point" transform="translate(392.87,246.11)" d="M3,0A3,3 0 1,1 0,-3A3,3 0 0,1 3,0Z" style="opacity: 1; stroke-width: 0px; fill: rgb(241, 104, 241); fill-opacity: 1;"/><path class="point" transform="translate(395.76,222.07)" d="M3,0A3,3 0 1,1 0,-3A3,3 0 0,1 3,0Z" style="opacity: 1; stroke-width: 0px; fill: rgb(241, 104, 241); fill-opacity: 1;"/><path class="point" transform="translate(398.64,225.87)" d="M3,0A3,3 0 1,1 0,-3A3,3 0 0,1 3,0Z" style="opacity: 1; stroke-width: 0px; fill: rgb(241, 104, 241); fill-opacity: 1;"/><path class="point" transform="translate(401.52,186.27)" d="M3,0A3,3 0 1,1 0,-3A3,3 0 0,1 3,0Z" style="opacity: 1; stroke-width: 0px; fill: rgb(241, 104, 241); fill-opacity: 1;"/><path class="point" transform="translate(410.16,216.6)" d="M3,0A3,3 0 1,1 0,-3A3,3 0 0,1 3,0Z" style="opacity: 1; stroke-width: 0px; fill: rgb(241, 104, 241); fill-opacity: 1;"/><path class="point" transform="translate(413.05,231.41)" d="M3,0A3,3 0 1,1 0,-3A3,3 0 0,1 3,0Z" style="opacity: 1; stroke-width: 0px; fill: rgb(241, 104, 241); fill-opacity: 1;"/><path class="point" transform="translate(415.93,198.75)" d="M3,0A3,3 0 1,1 0,-3A3,3 0 0,1 3,0Z" style="opacity: 1; stroke-width: 0px; fill: rgb(241, 104, 241); fill-opacity: 1;"/><path class="point" transform="translate(418.81,232.55)" d="M3,0A3,3 0 1,1 0,-3A3,3 0 0,1 3,0Z" style="opacity: 1; stroke-width: 0px; fill: rgb(241, 104, 241); fill-opacity: 1;"/><path class="point" transform="translate(421.69,207.37)" d="M3,0A3,3 0 1,1 0,-3A3,3 0 0,1 3,0Z" style="opacity: 1; stroke-width: 0px; fill: rgb(241, 104, 241); fill-opacity: 1;"/><path class="point" transform="translate(430.34,201.09)" d="M3,0A3,3 0 1,1 0,-3A3,3 0 0,1 3,0Z" style="opacity: 1; stroke-width: 0px; fill: rgb(241, 104, 241); fill-opacity: 1;"/><path class="point" transform="translate(433.22,199.47)" d="M3,0A3,3 0 1,1 0,-3A3,3 0 0,1 3,0Z" style="opacity: 1; stroke-width: 0px; fill: rgb(241, 104, 241); fill-opacity: 1;"/><path class="point" transform="translate(436.1,284.69)" d="M3,0A3,3 0 1,1 0,-3A3,3 0 0,1 3,0Z" style="opacity: 1; stroke-width: 0px; fill: rgb(241, 104, 241); fill-opacity: 1;"/></g><g class="text"/></g></g></g><g class="overplot"/><path class="xlines-above crisp" d="M0,0" style="fill: none;"/><path class="ylines-above crisp" d="M0,0" style="fill: none;"/><g class="overlines-above"/><g class="xaxislayer-above"><g class="xtick"><text text-anchor="middle" x="0" y="433" transform="translate(138.6,0)" style="font-family: 'Open Sans', verdana, arial, sans-serif; font-size: 12px; fill: rgb(42, 63, 95); fill-opacity: 1; white-space: pre; opacity: 1;">Oct 2021</text></g><g class="xtick"><text text-anchor="middle" x="0" y="433" style="font-family: 'Open Sans', verdana, arial, sans-serif; font-size: 12px; fill: rgb(42, 63, 95); fill-opacity: 1; white-space: pre; opacity: 1;" transform="translate(227.93,0)">Nov 2021</text></g><g class="xtick"><text text-anchor="middle" x="0" y="433" style="font-family: 'Open Sans', verdana, arial, sans-serif; font-size: 12px; fill: rgb(42, 63, 95); fill-opacity: 1; white-space: pre; opacity: 1;" transform="translate(314.38,0)">Dec 2021</text></g><g class="xtick"><text text-anchor="middle" x="0" y="433" style="font-family: 'Open Sans', verdana, arial, sans-serif; font-size: 12px; fill: rgb(42, 63, 95); fill-opacity: 1; white-space: pre; opacity: 1;" transform="translate(403.71,0)">Jan 2022</text></g><g class="xtick"><text text-anchor="middle" x="0" y="433" style="font-family: 'Open Sans', verdana, arial, sans-serif; font-size: 12px; fill: rgb(42, 63, 95); fill-opacity: 1; white-space: pre; opacity: 1;" transform="translate(493.05,0)">Feb 2022</text></g></g><g class="yaxislayer-above"><g class="ytick"><text text-anchor="end" x="79" y="4.199999999999999" transform="translate(0,416.05)" style="font-family: 'Open Sans', verdana, arial, sans-serif; font-size: 12px; fill: rgb(42, 63, 95); fill-opacity: 1; white-space: pre; opacity: 1;">700</text></g><g class="ytick"><text text-anchor="end" x="79" y="4.199999999999999" style="font-family: 'Open Sans', verdana, arial, sans-serif; font-size: 12px; fill: rgb(42, 63, 95); fill-opacity: 1; white-space: pre; opacity: 1;" transform="translate(0,363.69)">800</text></g><g class="ytick"><text text-anchor="end" x="79" y="4.199999999999999" style="font-family: 'Open Sans', verdana, arial, sans-serif; font-size: 12px; fill: rgb(42, 63, 95); fill-opacity: 1; white-space: pre; opacity: 1;" transform="translate(0,311.32)">900</text></g><g class="ytick"><text text-anchor="end" x="79" y="4.199999999999999" style="font-family: 'Open Sans', verdana, arial, sans-serif; font-size: 12px; fill: rgb(42, 63, 95); fill-opacity: 1; white-space: pre; opacity: 1;" transform="translate(0,258.96000000000004)">1000</text></g><g class="ytick"><text text-anchor="end" x="79" y="4.199999999999999" style="font-family: 'Open Sans', verdana, arial, sans-serif; font-size: 12px; fill: rgb(42, 63, 95); fill-opacity: 1; white-space: pre; opacity: 1;" transform="translate(0,206.6)">1100</text></g><g class="ytick"><text text-anchor="end" x="79" y="4.199999999999999" style="font-family: 'Open Sans', verdana, arial, sans-serif; font-size: 12px; fill: rgb(42, 63, 95); fill-opacity: 1; white-space: pre; opacity: 1;" transform="translate(0,154.24)">1200</text></g><g class="ytick"><text text-anchor="end" x="79" y="4.199999999999999" style="font-family: 'Open Sans', verdana, arial, sans-serif; font-size: 12px; fill: rgb(42, 63, 95); fill-opacity: 1; white-space: pre; opacity: 1;" transform="translate(0,101.88)">1300</text></g></g><g class="overaxes-above"/></g></g><g class="polarlayer"/><g class="smithlayer"/><g class="ternarylayer"/><g class="geolayer"/><g class="funnelarealayer"/><g class="pielayer"/><g class="iciclelayer"/><g class="treemaplayer"/><g class="sunburstlayer"/><g class="glimages"/><defs id="topdefs-deb611"><g class="clips"/><clipPath id="legenddeb611"><rect width="136" height="48" x="0" y="0"/></clipPath></defs><g class="layer-above"><g class="imagelayer"/><g class="shapelayer"/></g><g class="infolayer"><g class="legend" pointer-events="all" transform="translate(552.26,100)"><rect class="bg" shape-rendering="crispEdges" style="stroke: rgb(68, 68, 68); stroke-opacity: 1; fill: rgb(255, 255, 255); fill-opacity: 1; stroke-width: 0px;" width="136" height="48" x="0" y="0"/><g class="scrollbox" transform="" clip-path="url(#legenddeb611)"><g class="groups"><g class="traces" transform="translate(0,14.5)" style="opacity: 1;"><text class="legendtext" text-anchor="start" x="40" y="4.680000000000001" style="font-family: 'Open Sans', verdana, arial, sans-serif; font-size: 12px; fill: rgb(42, 63, 95); fill-opacity: 1; white-space: pre;">Validation data</text><g class="layers" style="opacity: 1;"><g class="legendfill"/><g class="legendlines"><path class="js-line" d="M5,0h30" style="fill: none; stroke: rgb(198, 148, 246); stroke-opacity: 1; stroke-width: 1px;"/></g><g class="legendsymbols"><g class="legendpoints"><path class="scatterpts" transform="translate(20,0)" d="M3,0A3,3 0 1,1 0,-3A3,3 0 0,1 3,0Z" style="opacity: 1; stroke-width: 0px; fill: rgb(198, 148, 246); fill-opacity: 1;"/></g></g></g><rect class="legendtoggle" x="0" y="-9.5" width="130.109375" height="19" style="fill: rgb(0, 0, 0); fill-opacity: 0;"/></g><g class="traces" transform="translate(0,33.5)" style="opacity: 1;"><text class="legendtext" text-anchor="start" x="40" y="4.680000000000001" style="font-family: 'Open Sans', verdana, arial, sans-serif; font-size: 12px; fill: rgb(42, 63, 95); fill-opacity: 1; white-space: pre;">Predictions</text><g class="layers" style="opacity: 1;"><g class="legendfill"/><g class="legendlines"><path class="js-line" d="M5,0h30" style="fill: none; stroke: rgb(241, 104, 241); stroke-opacity: 1; stroke-width: 1px;"/></g><g class="legendsymbols"><g class="legendpoints"><path class="scatterpts" transform="translate(20,0)" d="M3,0A3,3 0 1,1 0,-3A3,3 0 0,1 3,0Z" style="opacity: 1; stroke-width: 0px; fill: rgb(241, 104, 241); fill-opacity: 1;"/></g></g></g><rect class="legendtoggle" x="0" y="-9.5" width="130.109375" height="19" style="fill: rgb(0, 0, 0); fill-opacity: 0;"/></g></g></g><rect class="scrollbar" rx="20" ry="3" width="0" height="0" style="fill: rgb(128, 139, 164); fill-opacity: 1;" x="0" y="0"/></g><g class="g-gtitle"><text class="gtitle" x="35" y="50" text-anchor="start" dy="0em" style="font-family: 'Open Sans', verdana, arial, sans-serif; font-size: 17px; fill: rgb(42, 63, 95); opacity: 1; font-weight: normal; white-space: pre;">Predictions of stock "TSLA" from 2019-10-16 to 2022-02-09</text></g><g class="g-xtitle"><text class="xtitle" x="311.5" y="460.8" text-anchor="middle" style="font-family: 'Open Sans', verdana, arial, sans-serif; font-size: 14px; fill: rgb(42, 63, 95); opacity: 1; font-weight: normal; white-space: pre;">Date</text></g><g class="g-ytitle"><text class="ytitle" transform="rotate(-90,23.653125000000003,260)" x="23.653125000000003" y="260" text-anchor="middle" style="font-family: 'Open Sans', verdana, arial, sans-serif; font-size: 14px; fill: rgb(42, 63, 95); opacity: 1; font-weight: normal; white-space: pre;">Adjusted closing price USD ($)</text></g></g></svg>