<?xml version="1.0" encoding="utf-8" standalone="no"?>
<!DOCTYPE svg PUBLIC "-//W3C//DTD SVG 1.1//EN"
  "http://www.w3.org/Graphics/SVG/1.1/DTD/svg11.dtd">
<!-- Created with matplotlib (https://matplotlib.org/) -->
<svg height="1080pt" version="1.1" viewBox="0 0 1584 1080" width="1584pt" xmlns="http://www.w3.org/2000/svg" xmlns:xlink="http://www.w3.org/1999/xlink">
 <metadata>
  <rdf:RDF xmlns:cc="http://creativecommons.org/ns#" xmlns:dc="http://purl.org/dc/elements/1.1/" xmlns:rdf="http://www.w3.org/1999/02/22-rdf-syntax-ns#">
   <cc:Work>
    <dc:type rdf:resource="http://purl.org/dc/dcmitype/StillImage"/>
    <dc:date>2022-02-18T01:08:40.918691</dc:date>
    <dc:format>image/svg+xml</dc:format>
    <dc:creator>
     <cc:Agent>
      <dc:title>Matplotlib v3.3.2, https://matplotlib.org/</dc:title>
     </cc:Agent>
    </dc:creator>
   </cc:Work>
  </rdf:RDF>
 </metadata>
 <defs>
  <style type="text/css">*{stroke-linecap:butt;stroke-linejoin:round;}</style>
 </defs>
 <g id="figure_1">
  <g id="patch_1">
   <path d="M 0 1080 
L 1584 1080 
L 1584 0 
L 0 0 
z
" style="fill:#f0f0f0;"/>
  </g>
  <g id="axes_1">
   <g id="patch_2">
    <path d="M 126.72 1004.4 
L 1504.8 1004.4 
L 1504.8 129.6 
L 126.72 129.6 
z
" style="fill:#eaeaf2;"/>
   </g>
   <g id="matplotlib.axis_1">
    <g id="xtick_1">
     <g id="line2d_1">
      <path clip-path="url(#p33f5968528)" d="M 195.412174 1004.4 
L 195.412174 129.6 
" style="fill:none;stroke:#ffffff;stroke-linecap:round;"/>
     </g>
     <g id="text_1">
      <!-- 0 -->
      <g style="fill:#262626;" transform="translate(190.958424 1018.537813)scale(0.14 -0.14)">
       <defs>
        <path d="M 31.78125 66.40625 
Q 24.171875 66.40625 20.328125 58.90625 
Q 16.5 51.421875 16.5 36.375 
Q 16.5 21.390625 20.328125 13.890625 
Q 24.171875 6.390625 31.78125 6.390625 
Q 39.453125 6.390625 43.28125 13.890625 
Q 47.125 21.390625 47.125 36.375 
Q 47.125 51.421875 43.28125 58.90625 
Q 39.453125 66.40625 31.78125 66.40625 
z
M 31.78125 74.21875 
Q 44.046875 74.21875 50.515625 64.515625 
Q 56.984375 54.828125 56.984375 36.375 
Q 56.984375 17.96875 50.515625 8.265625 
Q 44.046875 -1.421875 31.78125 -1.421875 
Q 19.53125 -1.421875 13.0625 8.265625 
Q 6.59375 17.96875 6.59375 36.375 
Q 6.59375 54.828125 13.0625 64.515625 
Q 19.53125 74.21875 31.78125 74.21875 
z
" id="DejaVuSans-48"/>
       </defs>
       <use xlink:href="#DejaVuSans-48"/>
      </g>
     </g>
    </g>
    <g id="xtick_2">
     <g id="line2d_2">
      <path clip-path="url(#p33f5968528)" d="M 498.02087 1004.4 
L 498.02087 129.6 
" style="fill:none;stroke:#ffffff;stroke-linecap:round;"/>
     </g>
     <g id="text_2">
      <!-- 50 -->
      <g style="fill:#262626;" transform="translate(489.11337 1018.537813)scale(0.14 -0.14)">
       <defs>
        <path d="M 10.796875 72.90625 
L 49.515625 72.90625 
L 49.515625 64.59375 
L 19.828125 64.59375 
L 19.828125 46.734375 
Q 21.96875 47.46875 24.109375 47.828125 
Q 26.265625 48.1875 28.421875 48.1875 
Q 40.625 48.1875 47.75 41.5 
Q 54.890625 34.8125 54.890625 23.390625 
Q 54.890625 11.625 47.5625 5.09375 
Q 40.234375 -1.421875 26.90625 -1.421875 
Q 22.3125 -1.421875 17.546875 -0.640625 
Q 12.796875 0.140625 7.71875 1.703125 
L 7.71875 11.625 
Q 12.109375 9.234375 16.796875 8.0625 
Q 21.484375 6.890625 26.703125 6.890625 
Q 35.15625 6.890625 40.078125 11.328125 
Q 45.015625 15.765625 45.015625 23.390625 
Q 45.015625 31 40.078125 35.4375 
Q 35.15625 39.890625 26.703125 39.890625 
Q 22.75 39.890625 18.8125 39.015625 
Q 14.890625 38.140625 10.796875 36.28125 
z
" id="DejaVuSans-53"/>
       </defs>
       <use xlink:href="#DejaVuSans-53"/>
       <use x="63.623047" xlink:href="#DejaVuSans-48"/>
      </g>
     </g>
    </g>
    <g id="xtick_3">
     <g id="line2d_3">
      <path clip-path="url(#p33f5968528)" d="M 800.629565 1004.4 
L 800.629565 129.6 
" style="fill:none;stroke:#ffffff;stroke-linecap:round;"/>
     </g>
     <g id="text_3">
      <!-- 100 -->
      <g style="fill:#262626;" transform="translate(787.268315 1018.537813)scale(0.14 -0.14)">
       <defs>
        <path d="M 12.40625 8.296875 
L 28.515625 8.296875 
L 28.515625 63.921875 
L 10.984375 60.40625 
L 10.984375 69.390625 
L 28.421875 72.90625 
L 38.28125 72.90625 
L 38.28125 8.296875 
L 54.390625 8.296875 
L 54.390625 0 
L 12.40625 0 
z
" id="DejaVuSans-49"/>
       </defs>
       <use xlink:href="#DejaVuSans-49"/>
       <use x="63.623047" xlink:href="#DejaVuSans-48"/>
       <use x="127.246094" xlink:href="#DejaVuSans-48"/>
      </g>
     </g>
    </g>
    <g id="xtick_4">
     <g id="line2d_4">
      <path clip-path="url(#p33f5968528)" d="M 1103.238261 1004.4 
L 1103.238261 129.6 
" style="fill:none;stroke:#ffffff;stroke-linecap:round;"/>
     </g>
     <g id="text_4">
      <!-- 150 -->
      <g style="fill:#262626;" transform="translate(1089.877011 1018.537813)scale(0.14 -0.14)">
       <use xlink:href="#DejaVuSans-49"/>
       <use x="63.623047" xlink:href="#DejaVuSans-53"/>
       <use x="127.246094" xlink:href="#DejaVuSans-48"/>
      </g>
     </g>
    </g>
    <g id="xtick_5">
     <g id="line2d_5">
      <path clip-path="url(#p33f5968528)" d="M 1405.846957 1004.4 
L 1405.846957 129.6 
" style="fill:none;stroke:#ffffff;stroke-linecap:round;"/>
     </g>
     <g id="text_5">
      <!-- 200 -->
      <g style="fill:#262626;" transform="translate(1392.485707 1018.537813)scale(0.14 -0.14)">
       <defs>
        <path d="M 19.1875 8.296875 
L 53.609375 8.296875 
L 53.609375 0 
L 7.328125 0 
L 7.328125 8.296875 
Q 12.9375 14.109375 22.625 23.890625 
Q 32.328125 33.6875 34.8125 36.53125 
Q 39.546875 41.84375 41.421875 45.53125 
Q 43.3125 49.21875 43.3125 52.78125 
Q 43.3125 58.59375 39.234375 62.25 
Q 35.15625 65.921875 28.609375 65.921875 
Q 23.96875 65.921875 18.8125 64.3125 
Q 13.671875 62.703125 7.8125 59.421875 
L 7.8125 69.390625 
Q 13.765625 71.78125 18.9375 73 
Q 24.125 74.21875 28.421875 74.21875 
Q 39.75 74.21875 46.484375 68.546875 
Q 53.21875 62.890625 53.21875 53.421875 
Q 53.21875 48.921875 51.53125 44.890625 
Q 49.859375 40.875 45.40625 35.40625 
Q 44.1875 33.984375 37.640625 27.21875 
Q 31.109375 20.453125 19.1875 8.296875 
z
" id="DejaVuSans-50"/>
       </defs>
       <use xlink:href="#DejaVuSans-50"/>
       <use x="63.623047" xlink:href="#DejaVuSans-48"/>
       <use x="127.246094" xlink:href="#DejaVuSans-48"/>
      </g>
     </g>
    </g>
   </g>
   <g id="matplotlib.axis_2">
    <g id="ytick_1">
     <g id="line2d_6">
      <path clip-path="url(#p33f5968528)" d="M 126.72 912.971371 
L 1504.8 912.971371 
" style="fill:none;stroke:#ffffff;stroke-linecap:round;"/>
     </g>
     <g id="text_6">
      <!-- 600 -->
      <g style="fill:#262626;" transform="translate(96.4975 918.290277)scale(0.14 -0.14)">
       <defs>
        <path d="M 33.015625 40.375 
Q 26.375 40.375 22.484375 35.828125 
Q 18.609375 31.296875 18.609375 23.390625 
Q 18.609375 15.53125 22.484375 10.953125 
Q 26.375 6.390625 33.015625 6.390625 
Q 39.65625 6.390625 43.53125 10.953125 
Q 47.40625 15.53125 47.40625 23.390625 
Q 47.40625 31.296875 43.53125 35.828125 
Q 39.65625 40.375 33.015625 40.375 
z
M 52.59375 71.296875 
L 52.59375 62.3125 
Q 48.875 64.0625 45.09375 64.984375 
Q 41.3125 65.921875 37.59375 65.921875 
Q 27.828125 65.921875 22.671875 59.328125 
Q 17.53125 52.734375 16.796875 39.40625 
Q 19.671875 43.65625 24.015625 45.921875 
Q 28.375 48.1875 33.59375 48.1875 
Q 44.578125 48.1875 50.953125 41.515625 
Q 57.328125 34.859375 57.328125 23.390625 
Q 57.328125 12.15625 50.6875 5.359375 
Q 44.046875 -1.421875 33.015625 -1.421875 
Q 20.359375 -1.421875 13.671875 8.265625 
Q 6.984375 17.96875 6.984375 36.375 
Q 6.984375 53.65625 15.1875 63.9375 
Q 23.390625 74.21875 37.203125 74.21875 
Q 40.921875 74.21875 44.703125 73.484375 
Q 48.484375 72.75 52.59375 71.296875 
z
" id="DejaVuSans-54"/>
       </defs>
       <use xlink:href="#DejaVuSans-54"/>
       <use x="63.623047" xlink:href="#DejaVuSans-48"/>
       <use x="127.246094" xlink:href="#DejaVuSans-48"/>
      </g>
     </g>
    </g>
    <g id="ytick_2">
     <g id="line2d_7">
      <path clip-path="url(#p33f5968528)" d="M 126.72 800.575549 
L 1504.8 800.575549 
" style="fill:none;stroke:#ffffff;stroke-linecap:round;"/>
     </g>
     <g id="text_7">
      <!-- 700 -->
      <g style="fill:#262626;" transform="translate(96.4975 805.894456)scale(0.14 -0.14)">
       <defs>
        <path d="M 8.203125 72.90625 
L 55.078125 72.90625 
L 55.078125 68.703125 
L 28.609375 0 
L 18.3125 0 
L 43.21875 64.59375 
L 8.203125 64.59375 
z
" id="DejaVuSans-55"/>
       </defs>
       <use xlink:href="#DejaVuSans-55"/>
       <use x="63.623047" xlink:href="#DejaVuSans-48"/>
       <use x="127.246094" xlink:href="#DejaVuSans-48"/>
      </g>
     </g>
    </g>
    <g id="ytick_3">
     <g id="line2d_8">
      <path clip-path="url(#p33f5968528)" d="M 126.72 688.179728 
L 1504.8 688.179728 
" style="fill:none;stroke:#ffffff;stroke-linecap:round;"/>
     </g>
     <g id="text_8">
      <!-- 800 -->
      <g style="fill:#262626;" transform="translate(96.4975 693.498634)scale(0.14 -0.14)">
       <defs>
        <path d="M 31.78125 34.625 
Q 24.75 34.625 20.71875 30.859375 
Q 16.703125 27.09375 16.703125 20.515625 
Q 16.703125 13.921875 20.71875 10.15625 
Q 24.75 6.390625 31.78125 6.390625 
Q 38.8125 6.390625 42.859375 10.171875 
Q 46.921875 13.96875 46.921875 20.515625 
Q 46.921875 27.09375 42.890625 30.859375 
Q 38.875 34.625 31.78125 34.625 
z
M 21.921875 38.8125 
Q 15.578125 40.375 12.03125 44.71875 
Q 8.5 49.078125 8.5 55.328125 
Q 8.5 64.0625 14.71875 69.140625 
Q 20.953125 74.21875 31.78125 74.21875 
Q 42.671875 74.21875 48.875 69.140625 
Q 55.078125 64.0625 55.078125 55.328125 
Q 55.078125 49.078125 51.53125 44.71875 
Q 48 40.375 41.703125 38.8125 
Q 48.828125 37.15625 52.796875 32.3125 
Q 56.78125 27.484375 56.78125 20.515625 
Q 56.78125 9.90625 50.3125 4.234375 
Q 43.84375 -1.421875 31.78125 -1.421875 
Q 19.734375 -1.421875 13.25 4.234375 
Q 6.78125 9.90625 6.78125 20.515625 
Q 6.78125 27.484375 10.78125 32.3125 
Q 14.796875 37.15625 21.921875 38.8125 
z
M 18.3125 54.390625 
Q 18.3125 48.734375 21.84375 45.5625 
Q 25.390625 42.390625 31.78125 42.390625 
Q 38.140625 42.390625 41.71875 45.5625 
Q 45.3125 48.734375 45.3125 54.390625 
Q 45.3125 60.0625 41.71875 63.234375 
Q 38.140625 66.40625 31.78125 66.40625 
Q 25.390625 66.40625 21.84375 63.234375 
Q 18.3125 60.0625 18.3125 54.390625 
z
" id="DejaVuSans-56"/>
       </defs>
       <use xlink:href="#DejaVuSans-56"/>
       <use x="63.623047" xlink:href="#DejaVuSans-48"/>
       <use x="127.246094" xlink:href="#DejaVuSans-48"/>
      </g>
     </g>
    </g>
    <g id="ytick_4">
     <g id="line2d_9">
      <path clip-path="url(#p33f5968528)" d="M 126.72 575.783907 
L 1504.8 575.783907 
" style="fill:none;stroke:#ffffff;stroke-linecap:round;"/>
     </g>
     <g id="text_9">
      <!-- 900 -->
      <g style="fill:#262626;" transform="translate(96.4975 581.102813)scale(0.14 -0.14)">
       <defs>
        <path d="M 10.984375 1.515625 
L 10.984375 10.5 
Q 14.703125 8.734375 18.5 7.8125 
Q 22.3125 6.890625 25.984375 6.890625 
Q 35.75 6.890625 40.890625 13.453125 
Q 46.046875 20.015625 46.78125 33.40625 
Q 43.953125 29.203125 39.59375 26.953125 
Q 35.25 24.703125 29.984375 24.703125 
Q 19.046875 24.703125 12.671875 31.3125 
Q 6.296875 37.9375 6.296875 49.421875 
Q 6.296875 60.640625 12.9375 67.421875 
Q 19.578125 74.21875 30.609375 74.21875 
Q 43.265625 74.21875 49.921875 64.515625 
Q 56.59375 54.828125 56.59375 36.375 
Q 56.59375 19.140625 48.40625 8.859375 
Q 40.234375 -1.421875 26.421875 -1.421875 
Q 22.703125 -1.421875 18.890625 -0.6875 
Q 15.09375 0.046875 10.984375 1.515625 
z
M 30.609375 32.421875 
Q 37.25 32.421875 41.125 36.953125 
Q 45.015625 41.5 45.015625 49.421875 
Q 45.015625 57.28125 41.125 61.84375 
Q 37.25 66.40625 30.609375 66.40625 
Q 23.96875 66.40625 20.09375 61.84375 
Q 16.21875 57.28125 16.21875 49.421875 
Q 16.21875 41.5 20.09375 36.953125 
Q 23.96875 32.421875 30.609375 32.421875 
z
" id="DejaVuSans-57"/>
       </defs>
       <use xlink:href="#DejaVuSans-57"/>
       <use x="63.623047" xlink:href="#DejaVuSans-48"/>
       <use x="127.246094" xlink:href="#DejaVuSans-48"/>
      </g>
     </g>
    </g>
    <g id="ytick_5">
     <g id="line2d_10">
      <path clip-path="url(#p33f5968528)" d="M 126.72 463.388086 
L 1504.8 463.388086 
" style="fill:none;stroke:#ffffff;stroke-linecap:round;"/>
     </g>
     <g id="text_10">
      <!-- 1000 -->
      <g style="fill:#262626;" transform="translate(87.59 468.706992)scale(0.14 -0.14)">
       <use xlink:href="#DejaVuSans-49"/>
       <use x="63.623047" xlink:href="#DejaVuSans-48"/>
       <use x="127.246094" xlink:href="#DejaVuSans-48"/>
       <use x="190.869141" xlink:href="#DejaVuSans-48"/>
      </g>
     </g>
    </g>
    <g id="ytick_6">
     <g id="line2d_11">
      <path clip-path="url(#p33f5968528)" d="M 126.72 350.992264 
L 1504.8 350.992264 
" style="fill:none;stroke:#ffffff;stroke-linecap:round;"/>
     </g>
     <g id="text_11">
      <!-- 1100 -->
      <g style="fill:#262626;" transform="translate(87.59 356.311171)scale(0.14 -0.14)">
       <use xlink:href="#DejaVuSans-49"/>
       <use x="63.623047" xlink:href="#DejaVuSans-49"/>
       <use x="127.246094" xlink:href="#DejaVuSans-48"/>
       <use x="190.869141" xlink:href="#DejaVuSans-48"/>
      </g>
     </g>
    </g>
    <g id="ytick_7">
     <g id="line2d_12">
      <path clip-path="url(#p33f5968528)" d="M 126.72 238.596443 
L 1504.8 238.596443 
" style="fill:none;stroke:#ffffff;stroke-linecap:round;"/>
     </g>
     <g id="text_12">
      <!-- 1200 -->
      <g style="fill:#262626;" transform="translate(87.59 243.915349)scale(0.14 -0.14)">
       <use xlink:href="#DejaVuSans-49"/>
       <use x="63.623047" xlink:href="#DejaVuSans-50"/>
       <use x="127.246094" xlink:href="#DejaVuSans-48"/>
       <use x="190.869141" xlink:href="#DejaVuSans-48"/>
      </g>
     </g>
    </g>
   </g>
   <g id="PathCollection_1">
    <defs>
     <path d="M 0 3.535534 
C 0.937635 3.535534 1.836992 3.163008 2.5 2.5 
C 3.163008 1.836992 3.535534 0.937635 3.535534 0 
C 3.535534 -0.937635 3.163008 -1.836992 2.5 -2.5 
C 1.836992 -3.163008 0.937635 -3.535534 0 -3.535534 
C -0.937635 -3.535534 -1.836992 -3.163008 -2.5 -2.5 
C -3.163008 -1.836992 -3.535534 -0.937635 -3.535534 0 
C -3.535534 0.937635 -3.163008 1.836992 -2.5 2.5 
C -1.836992 3.163008 -0.937635 3.535534 0 3.535534 
z
" id="mb9a63b5fd6" style="stroke:#00ff00;stroke-width:0.5;"/>
    </defs>
    <g clip-path="url(#p33f5968528)">
     <use style="fill:#00ff00;stroke:#00ff00;stroke-width:0.5;" x="189.36" xlink:href="#mb9a63b5fd6" y="767.53115"/>
     <use style="fill:#00ff00;stroke:#00ff00;stroke-width:0.5;" x="195.412174" xlink:href="#mb9a63b5fd6" y="757.640332"/>
     <use style="fill:#00ff00;stroke:#00ff00;stroke-width:0.5;" x="207.516522" xlink:href="#mb9a63b5fd6" y="806.869688"/>
     <use style="fill:#00ff00;stroke:#00ff00;stroke-width:0.5;" x="213.568696" xlink:href="#mb9a63b5fd6" y="826.426588"/>
     <use style="fill:#00ff00;stroke:#00ff00;stroke-width:0.5;" x="231.725217" xlink:href="#mb9a63b5fd6" y="830.248074"/>
     <use style="fill:#00ff00;stroke:#00ff00;stroke-width:0.5;" x="274.090435" xlink:href="#mb9a63b5fd6" y="944.790625"/>
     <use style="fill:#00ff00;stroke:#00ff00;stroke-width:0.5;" x="292.246957" xlink:href="#mb9a63b5fd6" y="937.844571"/>
     <use style="fill:#00ff00;stroke:#00ff00;stroke-width:0.5;" x="298.29913" xlink:href="#mb9a63b5fd6" y="954.040779"/>
     <use style="fill:#00ff00;stroke:#00ff00;stroke-width:0.5;" x="304.351304" xlink:href="#mb9a63b5fd6" y="927.830065"/>
     <use style="fill:#00ff00;stroke:#00ff00;stroke-width:0.5;" x="316.455652" xlink:href="#mb9a63b5fd6" y="905.733077"/>
     <use style="fill:#00ff00;stroke:#00ff00;stroke-width:0.5;" x="334.612174" xlink:href="#mb9a63b5fd6" y="878.297287"/>
     <use style="fill:#00ff00;stroke:#00ff00;stroke-width:0.5;" x="358.82087" xlink:href="#mb9a63b5fd6" y="943.498045"/>
     <use style="fill:#00ff00;stroke:#00ff00;stroke-width:0.5;" x="370.925217" xlink:href="#mb9a63b5fd6" y="907.205459"/>
     <use style="fill:#00ff00;stroke:#00ff00;stroke-width:0.5;" x="376.977391" xlink:href="#mb9a63b5fd6" y="908.93633"/>
     <use style="fill:#00ff00;stroke:#00ff00;stroke-width:0.5;" x="383.029565" xlink:href="#mb9a63b5fd6" y="914.342567"/>
     <use style="fill:#00ff00;stroke:#00ff00;stroke-width:0.5;" x="389.081739" xlink:href="#mb9a63b5fd6" y="901.596919"/>
     <use style="fill:#00ff00;stroke:#00ff00;stroke-width:0.5;" x="419.342609" xlink:href="#mb9a63b5fd6" y="894.313692"/>
     <use style="fill:#00ff00;stroke:#00ff00;stroke-width:0.5;" x="425.394783" xlink:href="#mb9a63b5fd6" y="886.771907"/>
     <use style="fill:#00ff00;stroke:#00ff00;stroke-width:0.5;" x="431.446957" xlink:href="#mb9a63b5fd6" y="889.559302"/>
     <use style="fill:#00ff00;stroke:#00ff00;stroke-width:0.5;" x="437.49913" xlink:href="#mb9a63b5fd6" y="886.322297"/>
     <use style="fill:#00ff00;stroke:#00ff00;stroke-width:0.5;" x="443.551304" xlink:href="#mb9a63b5fd6" y="849.389046"/>
     <use style="fill:#00ff00;stroke:#00ff00;stroke-width:0.5;" x="449.603478" xlink:href="#mb9a63b5fd6" y="823.257018"/>
     <use style="fill:#00ff00;stroke:#00ff00;stroke-width:0.5;" x="455.655652" xlink:href="#mb9a63b5fd6" y="832.192499"/>
     <use style="fill:#00ff00;stroke:#00ff00;stroke-width:0.5;" x="467.76" xlink:href="#mb9a63b5fd6" y="822.200494"/>
     <use style="fill:#00ff00;stroke:#00ff00;stroke-width:0.5;" x="473.812174" xlink:href="#mb9a63b5fd6" y="823.391887"/>
     <use style="fill:#00ff00;stroke:#00ff00;stroke-width:0.5;" x="498.02087" xlink:href="#mb9a63b5fd6" y="862.786609"/>
     <use style="fill:#00ff00;stroke:#00ff00;stroke-width:0.5;" x="504.073043" xlink:href="#mb9a63b5fd6" y="853.61514"/>
     <use style="fill:#00ff00;stroke:#00ff00;stroke-width:0.5;" x="510.125217" xlink:href="#mb9a63b5fd6" y="848.961937"/>
     <use style="fill:#00ff00;stroke:#00ff00;stroke-width:0.5;" x="540.386087" xlink:href="#mb9a63b5fd6" y="863.269971"/>
     <use style="fill:#00ff00;stroke:#00ff00;stroke-width:0.5;" x="564.594783" xlink:href="#mb9a63b5fd6" y="857.605178"/>
     <use style="fill:#00ff00;stroke:#00ff00;stroke-width:0.5;" x="570.646957" xlink:href="#mb9a63b5fd6" y="864.214058"/>
     <use style="fill:#00ff00;stroke:#00ff00;stroke-width:0.5;" x="582.751304" xlink:href="#mb9a63b5fd6" y="862.640489"/>
     <use style="fill:#00ff00;stroke:#00ff00;stroke-width:0.5;" x="588.803478" xlink:href="#mb9a63b5fd6" y="860.167836"/>
     <use style="fill:#00ff00;stroke:#00ff00;stroke-width:0.5;" x="594.855652" xlink:href="#mb9a63b5fd6" y="826.03323"/>
     <use style="fill:#00ff00;stroke:#00ff00;stroke-width:0.5;" x="600.907826" xlink:href="#mb9a63b5fd6" y="814.962201"/>
     <use style="fill:#00ff00;stroke:#00ff00;stroke-width:0.5;" x="606.96" xlink:href="#mb9a63b5fd6" y="789.706893"/>
     <use style="fill:#00ff00;stroke:#00ff00;stroke-width:0.5;" x="631.168696" xlink:href="#mb9a63b5fd6" y="801.587139"/>
     <use style="fill:#00ff00;stroke:#00ff00;stroke-width:0.5;" x="643.273043" xlink:href="#mb9a63b5fd6" y="789.347218"/>
     <use style="fill:#00ff00;stroke:#00ff00;stroke-width:0.5;" x="649.325217" xlink:href="#mb9a63b5fd6" y="791.786188"/>
     <use style="fill:#00ff00;stroke:#00ff00;stroke-width:0.5;" x="667.481739" xlink:href="#mb9a63b5fd6" y="816.119911"/>
     <use style="fill:#00ff00;stroke:#00ff00;stroke-width:0.5;" x="673.533913" xlink:href="#mb9a63b5fd6" y="839.116052"/>
     <use style="fill:#00ff00;stroke:#00ff00;stroke-width:0.5;" x="685.638261" xlink:href="#mb9a63b5fd6" y="830.394194"/>
     <use style="fill:#00ff00;stroke:#00ff00;stroke-width:0.5;" x="691.690435" xlink:href="#mb9a63b5fd6" y="822.762473"/>
     <use style="fill:#00ff00;stroke:#00ff00;stroke-width:0.5;" x="697.742609" xlink:href="#mb9a63b5fd6" y="793.494626"/>
     <use style="fill:#00ff00;stroke:#00ff00;stroke-width:0.5;" x="709.846957" xlink:href="#mb9a63b5fd6" y="787.987204"/>
     <use style="fill:#00ff00;stroke:#00ff00;stroke-width:0.5;" x="715.89913" xlink:href="#mb9a63b5fd6" y="799.271788"/>
     <use style="fill:#00ff00;stroke:#00ff00;stroke-width:0.5;" x="734.055652" xlink:href="#mb9a63b5fd6" y="760.427795"/>
     <use style="fill:#00ff00;stroke:#00ff00;stroke-width:0.5;" x="746.16" xlink:href="#mb9a63b5fd6" y="764.170526"/>
     <use style="fill:#00ff00;stroke:#00ff00;stroke-width:0.5;" x="752.212174" xlink:href="#mb9a63b5fd6" y="762.844264"/>
     <use style="fill:#00ff00;stroke:#00ff00;stroke-width:0.5;" x="758.264348" xlink:href="#mb9a63b5fd6" y="741.0957"/>
     <use style="fill:#00ff00;stroke:#00ff00;stroke-width:0.5;" x="776.42087" xlink:href="#mb9a63b5fd6" y="759.809563"/>
     <use style="fill:#00ff00;stroke:#00ff00;stroke-width:0.5;" x="782.473043" xlink:href="#mb9a63b5fd6" y="752.245346"/>
     <use style="fill:#00ff00;stroke:#00ff00;stroke-width:0.5;" x="788.525217" xlink:href="#mb9a63b5fd6" y="750.570659"/>
     <use style="fill:#00ff00;stroke:#00ff00;stroke-width:0.5;" x="794.577391" xlink:href="#mb9a63b5fd6" y="737.824943"/>
     <use style="fill:#00ff00;stroke:#00ff00;stroke-width:0.5;" x="812.733913" xlink:href="#mb9a63b5fd6" y="766.665749"/>
     <use style="fill:#00ff00;stroke:#00ff00;stroke-width:0.5;" x="818.786087" xlink:href="#mb9a63b5fd6" y="756.314069"/>
     <use style="fill:#00ff00;stroke:#00ff00;stroke-width:0.5;" x="824.838261" xlink:href="#mb9a63b5fd6" y="742.197157"/>
     <use style="fill:#00ff00;stroke:#00ff00;stroke-width:0.5;" x="830.890435" xlink:href="#mb9a63b5fd6" y="740.286414"/>
     <use style="fill:#00ff00;stroke:#00ff00;stroke-width:0.5;" x="836.942609" xlink:href="#mb9a63b5fd6" y="716.964281"/>
     <use style="fill:#00ff00;stroke:#00ff00;stroke-width:0.5;" x="849.046957" xlink:href="#mb9a63b5fd6" y="713.401353"/>
     <use style="fill:#00ff00;stroke:#00ff00;stroke-width:0.5;" x="861.151304" xlink:href="#mb9a63b5fd6" y="715.739205"/>
     <use style="fill:#00ff00;stroke:#00ff00;stroke-width:0.5;" x="873.255652" xlink:href="#mb9a63b5fd6" y="708.939203"/>
     <use style="fill:#00ff00;stroke:#00ff00;stroke-width:0.5;" x="879.307826" xlink:href="#mb9a63b5fd6" y="709.995727"/>
     <use style="fill:#00ff00;stroke:#00ff00;stroke-width:0.5;" x="885.36" xlink:href="#mb9a63b5fd6" y="707.568007"/>
     <use style="fill:#00ff00;stroke:#00ff00;stroke-width:0.5;" x="891.412174" xlink:href="#mb9a63b5fd6" y="695.361838"/>
     <use style="fill:#00ff00;stroke:#00ff00;stroke-width:0.5;" x="897.464348" xlink:href="#mb9a63b5fd6" y="704.488373"/>
     <use style="fill:#00ff00;stroke:#00ff00;stroke-width:0.5;" x="903.516522" xlink:href="#mb9a63b5fd6" y="697.238829"/>
     <use style="fill:#00ff00;stroke:#00ff00;stroke-width:0.5;" x="909.568696" xlink:href="#mb9a63b5fd6" y="681.75072"/>
     <use style="fill:#00ff00;stroke:#00ff00;stroke-width:0.5;" x="915.62087" xlink:href="#mb9a63b5fd6" y="675.726252"/>
     <use style="fill:#00ff00;stroke:#00ff00;stroke-width:0.5;" x="921.673043" xlink:href="#mb9a63b5fd6" y="667.588805"/>
     <use style="fill:#00ff00;stroke:#00ff00;stroke-width:0.5;" x="927.725217" xlink:href="#mb9a63b5fd6" y="639.815773"/>
     <use style="fill:#00ff00;stroke:#00ff00;stroke-width:0.5;" x="939.829565" xlink:href="#mb9a63b5fd6" y="615.942912"/>
     <use style="fill:#00ff00;stroke:#00ff00;stroke-width:0.5;" x="945.881739" xlink:href="#mb9a63b5fd6" y="614.223291"/>
     <use style="fill:#00ff00;stroke:#00ff00;stroke-width:0.5;" x="951.933913" xlink:href="#mb9a63b5fd6" y="582.527656"/>
     <use style="fill:#00ff00;stroke:#00ff00;stroke-width:0.5;" x="957.986087" xlink:href="#mb9a63b5fd6" y="564.904"/>
     <use style="fill:#00ff00;stroke:#00ff00;stroke-width:0.5;" x="964.038261" xlink:href="#mb9a63b5fd6" y="435.446501"/>
     <use style="fill:#00ff00;stroke:#00ff00;stroke-width:0.5;" x="970.090435" xlink:href="#mb9a63b5fd6" y="442.673544"/>
     <use style="fill:#00ff00;stroke:#00ff00;stroke-width:0.5;" x="976.142609" xlink:href="#mb9a63b5fd6" y="420.835044"/>
     <use style="fill:#00ff00;stroke:#00ff00;stroke-width:0.5;" x="982.194783" xlink:href="#mb9a63b5fd6" y="376.798301"/>
     <use style="fill:#00ff00;stroke:#00ff00;stroke-width:0.5;" x="988.246957" xlink:href="#mb9a63b5fd6" y="335.256849"/>
     <use style="fill:#00ff00;stroke:#00ff00;stroke-width:0.5;" x="1000.351304" xlink:href="#mb9a63b5fd6" y="270.067273"/>
     <use style="fill:#00ff00;stroke:#00ff00;stroke-width:0.5;" x="1006.403478" xlink:href="#mb9a63b5fd6" y="223.018399"/>
     <use style="fill:#00ff00;stroke:#00ff00;stroke-width:0.5;" x="1030.612174" xlink:href="#mb9a63b5fd6" y="436.975068"/>
     <use style="fill:#00ff00;stroke:#00ff00;stroke-width:0.5;" x="1036.664348" xlink:href="#mb9a63b5fd6" y="387.01518"/>
     <use style="fill:#00ff00;stroke:#00ff00;stroke-width:0.5;" x="1048.768696" xlink:href="#mb9a63b5fd6" y="425.825353"/>
     <use style="fill:#00ff00;stroke:#00ff00;stroke-width:0.5;" x="1054.82087" xlink:href="#mb9a63b5fd6" y="448.338269"/>
     <use style="fill:#00ff00;stroke:#00ff00;stroke-width:0.5;" x="1060.873043" xlink:href="#mb9a63b5fd6" y="401.873875"/>
     <use style="fill:#00ff00;stroke:#00ff00;stroke-width:0.5;" x="1066.925217" xlink:href="#mb9a63b5fd6" y="363.344554"/>
     <use style="fill:#00ff00;stroke:#00ff00;stroke-width:0.5;" x="1072.977391" xlink:href="#mb9a63b5fd6" y="355.060988"/>
     <use style="fill:#00ff00;stroke:#00ff00;stroke-width:0.5;" x="1091.133913" xlink:href="#mb9a63b5fd6" y="340.842889"/>
     <use style="fill:#00ff00;stroke:#00ff00;stroke-width:0.5;" x="1097.186087" xlink:href="#mb9a63b5fd6" y="333.008933"/>
     <use style="fill:#00ff00;stroke:#00ff00;stroke-width:0.5;" x="1103.238261" xlink:href="#mb9a63b5fd6" y="371.313379"/>
     <use style="fill:#00ff00;stroke:#00ff00;stroke-width:0.5;" x="1133.49913" xlink:href="#mb9a63b5fd6" y="446.562464"/>
     <use style="fill:#00ff00;stroke:#00ff00;stroke-width:0.5;" x="1139.551304" xlink:href="#mb9a63b5fd6" y="453.261211"/>
     <use style="fill:#00ff00;stroke:#00ff00;stroke-width:0.5;" x="1169.812174" xlink:href="#mb9a63b5fd6" y="501.141872"/>
     <use style="fill:#00ff00;stroke:#00ff00;stroke-width:0.5;" x="1200.073043" xlink:href="#mb9a63b5fd6" y="575.851342"/>
     <use style="fill:#00ff00;stroke:#00ff00;stroke-width:0.5;" x="1206.125217" xlink:href="#mb9a63b5fd6" y="532.477764"/>
     <use style="fill:#00ff00;stroke:#00ff00;stroke-width:0.5;" x="1212.177391" xlink:href="#mb9a63b5fd6" y="453.418582"/>
     <use style="fill:#00ff00;stroke:#00ff00;stroke-width:0.5;" x="1218.229565" xlink:href="#mb9a63b5fd6" y="388.082885"/>
     <use style="fill:#00ff00;stroke:#00ff00;stroke-width:0.5;" x="1242.438261" xlink:href="#mb9a63b5fd6" y="384.328903"/>
     <use style="fill:#00ff00;stroke:#00ff00;stroke-width:0.5;" x="1248.490435" xlink:href="#mb9a63b5fd6" y="399.569705"/>
     <use style="fill:#00ff00;stroke:#00ff00;stroke-width:0.5;" x="1266.646957" xlink:href="#mb9a63b5fd6" y="364.344893"/>
     <use style="fill:#00ff00;stroke:#00ff00;stroke-width:0.5;" x="1272.69913" xlink:href="#mb9a63b5fd6" y="390.668044"/>
     <use style="fill:#00ff00;stroke:#00ff00;stroke-width:0.5;" x="1278.751304" xlink:href="#mb9a63b5fd6" y="433.086216"/>
     <use style="fill:#00ff00;stroke:#00ff00;stroke-width:0.5;" x="1284.803478" xlink:href="#mb9a63b5fd6" y="398.06364"/>
     <use style="fill:#00ff00;stroke:#00ff00;stroke-width:0.5;" x="1309.012174" xlink:href="#mb9a63b5fd6" y="407.628535"/>
     <use style="fill:#00ff00;stroke:#00ff00;stroke-width:0.5;" x="1339.273043" xlink:href="#mb9a63b5fd6" y="542.06516"/>
     <use style="fill:#00ff00;stroke:#00ff00;stroke-width:0.5;" x="1357.429565" xlink:href="#mb9a63b5fd6" y="655.472572"/>
     <use style="fill:#00ff00;stroke:#00ff00;stroke-width:0.5;" x="1363.481739" xlink:href="#mb9a63b5fd6" y="636.084292"/>
     <use style="fill:#00ff00;stroke:#00ff00;stroke-width:0.5;" x="1381.638261" xlink:href="#mb9a63b5fd6" y="569.422334"/>
     <use style="fill:#00ff00;stroke:#00ff00;stroke-width:0.5;" x="1399.794783" xlink:href="#mb9a63b5fd6" y="567.534023"/>
     <use style="fill:#00ff00;stroke:#00ff00;stroke-width:0.5;" x="1405.846957" xlink:href="#mb9a63b5fd6" y="551.056826"/>
     <use style="fill:#00ff00;stroke:#00ff00;stroke-width:0.5;" x="1424.003478" xlink:href="#mb9a63b5fd6" y="620.742235"/>
     <use style="fill:#00ff00;stroke:#00ff00;stroke-width:0.5;" x="1430.055652" xlink:href="#mb9a63b5fd6" y="603.028643"/>
    </g>
   </g>
   <g id="PathCollection_2">
    <defs>
     <path d="M 0 3.535534 
C 0.937635 3.535534 1.836992 3.163008 2.5 2.5 
C 3.163008 1.836992 3.535534 0.937635 3.535534 0 
C 3.535534 -0.937635 3.163008 -1.836992 2.5 -2.5 
C 1.836992 -3.163008 0.937635 -3.535534 0 -3.535534 
C -0.937635 -3.535534 -1.836992 -3.163008 -2.5 -2.5 
C -3.163008 -1.836992 -3.535534 -0.937635 -3.535534 0 
C -3.535534 0.937635 -3.163008 1.836992 -2.5 2.5 
C -1.836992 3.163008 -0.937635 3.535534 0 3.535534 
z
" id="m16f01a408b" style="stroke:#ff0000;stroke-width:0.5;"/>
    </defs>
    <g clip-path="url(#p33f5968528)">
     <use style="fill:#ff0000;stroke:#ff0000;stroke-width:0.5;" x="201.464348" xlink:href="#m16f01a408b" y="795.247998"/>
     <use style="fill:#ff0000;stroke:#ff0000;stroke-width:0.5;" x="219.62087" xlink:href="#m16f01a408b" y="789.965381"/>
     <use style="fill:#ff0000;stroke:#ff0000;stroke-width:0.5;" x="225.673043" xlink:href="#m16f01a408b" y="817.547291"/>
     <use style="fill:#ff0000;stroke:#ff0000;stroke-width:0.5;" x="237.777391" xlink:href="#m16f01a408b" y="833.237772"/>
     <use style="fill:#ff0000;stroke:#ff0000;stroke-width:0.5;" x="243.829565" xlink:href="#m16f01a408b" y="841.55509"/>
     <use style="fill:#ff0000;stroke:#ff0000;stroke-width:0.5;" x="249.881739" xlink:href="#m16f01a408b" y="831.63052"/>
     <use style="fill:#ff0000;stroke:#ff0000;stroke-width:0.5;" x="255.933913" xlink:href="#m16f01a408b" y="880.331649"/>
     <use style="fill:#ff0000;stroke:#ff0000;stroke-width:0.5;" x="261.986087" xlink:href="#m16f01a408b" y="893.639276"/>
     <use style="fill:#ff0000;stroke:#ff0000;stroke-width:0.5;" x="268.038261" xlink:href="#m16f01a408b" y="924.334572"/>
     <use style="fill:#ff0000;stroke:#ff0000;stroke-width:0.5;" x="280.142609" xlink:href="#m16f01a408b" y="924.503193"/>
     <use style="fill:#ff0000;stroke:#ff0000;stroke-width:0.5;" x="286.194783" xlink:href="#m16f01a408b" y="939.013463"/>
     <use style="fill:#ff0000;stroke:#ff0000;stroke-width:0.5;" x="310.403478" xlink:href="#m16f01a408b" y="934.461446"/>
     <use style="fill:#ff0000;stroke:#ff0000;stroke-width:0.5;" x="322.507826" xlink:href="#m16f01a408b" y="907.700004"/>
     <use style="fill:#ff0000;stroke:#ff0000;stroke-width:0.5;" x="328.56" xlink:href="#m16f01a408b" y="891.470044"/>
     <use style="fill:#ff0000;stroke:#ff0000;stroke-width:0.5;" x="340.664348" xlink:href="#m16f01a408b" y="884.625177"/>
     <use style="fill:#ff0000;stroke:#ff0000;stroke-width:0.5;" x="346.716522" xlink:href="#m16f01a408b" y="886.108742"/>
     <use style="fill:#ff0000;stroke:#ff0000;stroke-width:0.5;" x="352.768696" xlink:href="#m16f01a408b" y="907.21671"/>
     <use style="fill:#ff0000;stroke:#ff0000;stroke-width:0.5;" x="364.873043" xlink:href="#m16f01a408b" y="914.039145"/>
     <use style="fill:#ff0000;stroke:#ff0000;stroke-width:0.5;" x="395.133913" xlink:href="#m16f01a408b" y="901.855407"/>
     <use style="fill:#ff0000;stroke:#ff0000;stroke-width:0.5;" x="401.186087" xlink:href="#m16f01a408b" y="893.088547"/>
     <use style="fill:#ff0000;stroke:#ff0000;stroke-width:0.5;" x="407.238261" xlink:href="#m16f01a408b" y="913.69072"/>
     <use style="fill:#ff0000;stroke:#ff0000;stroke-width:0.5;" x="413.290435" xlink:href="#m16f01a408b" y="907.4977"/>
     <use style="fill:#ff0000;stroke:#ff0000;stroke-width:0.5;" x="461.707826" xlink:href="#m16f01a408b" y="813.253831"/>
     <use style="fill:#ff0000;stroke:#ff0000;stroke-width:0.5;" x="479.864348" xlink:href="#m16f01a408b" y="825.392566"/>
     <use style="fill:#ff0000;stroke:#ff0000;stroke-width:0.5;" x="485.916522" xlink:href="#m16f01a408b" y="824.29104"/>
     <use style="fill:#ff0000;stroke:#ff0000;stroke-width:0.5;" x="491.968696" xlink:href="#m16f01a408b" y="846.005921"/>
     <use style="fill:#ff0000;stroke:#ff0000;stroke-width:0.5;" x="516.177391" xlink:href="#m16f01a408b" y="816.648138"/>
     <use style="fill:#ff0000;stroke:#ff0000;stroke-width:0.5;" x="522.229565" xlink:href="#m16f01a408b" y="835.935299"/>
     <use style="fill:#ff0000;stroke:#ff0000;stroke-width:0.5;" x="528.281739" xlink:href="#m16f01a408b" y="852.974476"/>
     <use style="fill:#ff0000;stroke:#ff0000;stroke-width:0.5;" x="534.333913" xlink:href="#m16f01a408b" y="856.099112"/>
     <use style="fill:#ff0000;stroke:#ff0000;stroke-width:0.5;" x="546.438261" xlink:href="#m16f01a408b" y="861.022055"/>
     <use style="fill:#ff0000;stroke:#ff0000;stroke-width:0.5;" x="552.490435" xlink:href="#m16f01a408b" y="844.971899"/>
     <use style="fill:#ff0000;stroke:#ff0000;stroke-width:0.5;" x="558.542609" xlink:href="#m16f01a408b" y="850.827746"/>
     <use style="fill:#ff0000;stroke:#ff0000;stroke-width:0.5;" x="576.69913" xlink:href="#m16f01a408b" y="848.208904"/>
     <use style="fill:#ff0000;stroke:#ff0000;stroke-width:0.5;" x="613.012174" xlink:href="#m16f01a408b" y="789.628207"/>
     <use style="fill:#ff0000;stroke:#ff0000;stroke-width:0.5;" x="619.064348" xlink:href="#m16f01a408b" y="788.301945"/>
     <use style="fill:#ff0000;stroke:#ff0000;stroke-width:0.5;" x="625.116522" xlink:href="#m16f01a408b" y="784.132035"/>
     <use style="fill:#ff0000;stroke:#ff0000;stroke-width:0.5;" x="637.22087" xlink:href="#m16f01a408b" y="785.109873"/>
     <use style="fill:#ff0000;stroke:#ff0000;stroke-width:0.5;" x="655.377391" xlink:href="#m16f01a408b" y="775.567479"/>
     <use style="fill:#ff0000;stroke:#ff0000;stroke-width:0.5;" x="661.429565" xlink:href="#m16f01a408b" y="781.277206"/>
     <use style="fill:#ff0000;stroke:#ff0000;stroke-width:0.5;" x="679.586087" xlink:href="#m16f01a408b" y="812.95034"/>
     <use style="fill:#ff0000;stroke:#ff0000;stroke-width:0.5;" x="703.794783" xlink:href="#m16f01a408b" y="791.033155"/>
     <use style="fill:#ff0000;stroke:#ff0000;stroke-width:0.5;" x="721.951304" xlink:href="#m16f01a408b" y="787.177987"/>
     <use style="fill:#ff0000;stroke:#ff0000;stroke-width:0.5;" x="728.003478" xlink:href="#m16f01a408b" y="765.834031"/>
     <use style="fill:#ff0000;stroke:#ff0000;stroke-width:0.5;" x="740.107826" xlink:href="#m16f01a408b" y="762.259784"/>
     <use style="fill:#ff0000;stroke:#ff0000;stroke-width:0.5;" x="764.316522" xlink:href="#m16f01a408b" y="740.027926"/>
     <use style="fill:#ff0000;stroke:#ff0000;stroke-width:0.5;" x="770.368696" xlink:href="#m16f01a408b" y="738.915218"/>
     <use style="fill:#ff0000;stroke:#ff0000;stroke-width:0.5;" x="800.629565" xlink:href="#m16f01a408b" y="736.521182"/>
     <use style="fill:#ff0000;stroke:#ff0000;stroke-width:0.5;" x="806.681739" xlink:href="#m16f01a408b" y="733.711286"/>
     <use style="fill:#ff0000;stroke:#ff0000;stroke-width:0.5;" x="842.994783" xlink:href="#m16f01a408b" y="697.890743"/>
     <use style="fill:#ff0000;stroke:#ff0000;stroke-width:0.5;" x="855.09913" xlink:href="#m16f01a408b" y="709.18651"/>
     <use style="fill:#ff0000;stroke:#ff0000;stroke-width:0.5;" x="867.203478" xlink:href="#m16f01a408b" y="716.031446"/>
     <use style="fill:#ff0000;stroke:#ff0000;stroke-width:0.5;" x="933.777391" xlink:href="#m16f01a408b" y="609.379034"/>
     <use style="fill:#ff0000;stroke:#ff0000;stroke-width:0.5;" x="994.29913" xlink:href="#m16f01a408b" y="228.941681"/>
     <use style="fill:#ff0000;stroke:#ff0000;stroke-width:0.5;" x="1012.455652" xlink:href="#m16f01a408b" y="204.978815"/>
     <use style="fill:#ff0000;stroke:#ff0000;stroke-width:0.5;" x="1018.507826" xlink:href="#m16f01a408b" y="213.768245"/>
     <use style="fill:#ff0000;stroke:#ff0000;stroke-width:0.5;" x="1024.56" xlink:href="#m16f01a408b" y="280.2504"/>
     <use style="fill:#ff0000;stroke:#ff0000;stroke-width:0.5;" x="1042.716522" xlink:href="#m16f01a408b" y="392.005489"/>
     <use style="fill:#ff0000;stroke:#ff0000;stroke-width:0.5;" x="1079.029565" xlink:href="#m16f01a408b" y="309.338307"/>
     <use style="fill:#ff0000;stroke:#ff0000;stroke-width:0.5;" x="1085.081739" xlink:href="#m16f01a408b" y="287.072766"/>
     <use style="fill:#ff0000;stroke:#ff0000;stroke-width:0.5;" x="1109.290435" xlink:href="#m16f01a408b" y="309.417061"/>
     <use style="fill:#ff0000;stroke:#ff0000;stroke-width:0.5;" x="1115.342609" xlink:href="#m16f01a408b" y="300.683884"/>
     <use style="fill:#ff0000;stroke:#ff0000;stroke-width:0.5;" x="1121.394783" xlink:href="#m16f01a408b" y="356.612055"/>
     <use style="fill:#ff0000;stroke:#ff0000;stroke-width:0.5;" x="1127.446957" xlink:href="#m16f01a408b" y="368.301248"/>
     <use style="fill:#ff0000;stroke:#ff0000;stroke-width:0.5;" x="1145.603478" xlink:href="#m16f01a408b" y="405.223248"/>
     <use style="fill:#ff0000;stroke:#ff0000;stroke-width:0.5;" x="1151.655652" xlink:href="#m16f01a408b" y="385.879971"/>
     <use style="fill:#ff0000;stroke:#ff0000;stroke-width:0.5;" x="1157.707826" xlink:href="#m16f01a408b" y="459.117058"/>
     <use style="fill:#ff0000;stroke:#ff0000;stroke-width:0.5;" x="1163.76" xlink:href="#m16f01a408b" y="444.247044"/>
     <use style="fill:#ff0000;stroke:#ff0000;stroke-width:0.5;" x="1175.864348" xlink:href="#m16f01a408b" y="510.021101"/>
     <use style="fill:#ff0000;stroke:#ff0000;stroke-width:0.5;" x="1181.916522" xlink:href="#m16f01a408b" y="490.374333"/>
     <use style="fill:#ff0000;stroke:#ff0000;stroke-width:0.5;" x="1187.968696" xlink:href="#m16f01a408b" y="545.526971"/>
     <use style="fill:#ff0000;stroke:#ff0000;stroke-width:0.5;" x="1224.281739" xlink:href="#m16f01a408b" y="357.803517"/>
     <use style="fill:#ff0000;stroke:#ff0000;stroke-width:0.5;" x="1230.333913" xlink:href="#m16f01a408b" y="363.951535"/>
     <use style="fill:#ff0000;stroke:#ff0000;stroke-width:0.5;" x="1236.386087" xlink:href="#m16f01a408b" y="366.514193"/>
     <use style="fill:#ff0000;stroke:#ff0000;stroke-width:0.5;" x="1254.542609" xlink:href="#m16f01a408b" y="238.843681"/>
     <use style="fill:#ff0000;stroke:#ff0000;stroke-width:0.5;" x="1260.594783" xlink:href="#m16f01a408b" y="295.255215"/>
     <use style="fill:#ff0000;stroke:#ff0000;stroke-width:0.5;" x="1290.855652" xlink:href="#m16f01a408b" y="391.005149"/>
     <use style="fill:#ff0000;stroke:#ff0000;stroke-width:0.5;" x="1296.907826" xlink:href="#m16f01a408b" y="344.001277"/>
     <use style="fill:#ff0000;stroke:#ff0000;stroke-width:0.5;" x="1302.96" xlink:href="#m16f01a408b" y="427.915899"/>
     <use style="fill:#ff0000;stroke:#ff0000;stroke-width:0.5;" x="1315.064348" xlink:href="#m16f01a408b" y="429.09611"/>
     <use style="fill:#ff0000;stroke:#ff0000;stroke-width:0.5;" x="1321.116522" xlink:href="#m16f01a408b" y="468.277276"/>
     <use style="fill:#ff0000;stroke:#ff0000;stroke-width:0.5;" x="1327.168696" xlink:href="#m16f01a408b" y="467.580428"/>
     <use style="fill:#ff0000;stroke:#ff0000;stroke-width:0.5;" x="1333.22087" xlink:href="#m16f01a408b" y="526.442114"/>
     <use style="fill:#ff0000;stroke:#ff0000;stroke-width:0.5;" x="1345.325217" xlink:href="#m16f01a408b" y="555.103048"/>
     <use style="fill:#ff0000;stroke:#ff0000;stroke-width:0.5;" x="1351.377391" xlink:href="#m16f01a408b" y="533.73666"/>
     <use style="fill:#ff0000;stroke:#ff0000;stroke-width:0.5;" x="1369.533913" xlink:href="#m16f01a408b" y="534.512194"/>
     <use style="fill:#ff0000;stroke:#ff0000;stroke-width:0.5;" x="1375.586087" xlink:href="#m16f01a408b" y="540.660213"/>
     <use style="fill:#ff0000;stroke:#ff0000;stroke-width:0.5;" x="1387.690435" xlink:href="#m16f01a408b" y="585.74216"/>
     <use style="fill:#ff0000;stroke:#ff0000;stroke-width:0.5;" x="1393.742609" xlink:href="#m16f01a408b" y="549.573193"/>
     <use style="fill:#ff0000;stroke:#ff0000;stroke-width:0.5;" x="1411.89913" xlink:href="#m16f01a408b" y="539.817244"/>
     <use style="fill:#ff0000;stroke:#ff0000;stroke-width:0.5;" x="1417.951304" xlink:href="#m16f01a408b" y="570.669911"/>
     <use style="fill:#ff0000;stroke:#ff0000;stroke-width:0.5;" x="1436.107826" xlink:href="#m16f01a408b" y="550.573532"/>
    </g>
   </g>
   <g id="line2d_13">
    <path clip-path="url(#p33f5968528)" d="M 195.412174 767.53115 
L 201.464348 757.640332 
L 207.516522 795.247998 
L 213.568696 806.869688 
L 219.62087 826.426588 
L 225.673043 789.965381 
L 231.725217 817.547291 
L 237.777391 830.248074 
L 243.829565 833.237772 
L 249.881739 841.55509 
L 255.933913 831.63052 
L 261.986087 880.331649 
L 268.038261 893.639276 
L 274.090435 924.334572 
L 280.142609 944.790625 
L 286.194783 924.503193 
L 292.246957 939.013463 
L 298.29913 937.844571 
L 304.351304 954.040779 
L 310.403478 927.830065 
L 316.455652 934.461446 
L 322.507826 905.733077 
L 328.56 907.700004 
L 334.612174 891.470044 
L 340.664348 878.297287 
L 346.716522 884.625177 
L 352.768696 886.108742 
L 358.82087 907.21671 
L 364.873043 943.498045 
L 370.925217 914.039145 
L 376.977391 907.205459 
L 383.029565 908.93633 
L 389.081739 914.342567 
L 395.133913 901.596919 
L 401.186087 901.855407 
L 407.238261 893.088547 
L 413.290435 913.69072 
L 419.342609 907.4977 
L 425.394783 894.313692 
L 431.446957 886.771907 
L 437.49913 889.559302 
L 443.551304 886.322297 
L 449.603478 849.389046 
L 455.655652 823.257018 
L 461.707826 832.192499 
L 467.76 813.253831 
L 473.812174 822.200494 
L 479.864348 823.391887 
L 485.916522 825.392566 
L 491.968696 824.29104 
L 498.02087 846.005921 
L 504.073043 862.786609 
L 510.125217 853.61514 
L 516.177391 848.961937 
L 522.229565 816.648138 
L 528.281739 835.935299 
L 534.333913 852.974476 
L 540.386087 856.099112 
L 546.438261 863.269971 
L 552.490435 861.022055 
L 558.542609 844.971899 
L 564.594783 850.827746 
L 570.646957 857.605178 
L 576.69913 864.214058 
L 582.751304 848.208904 
L 588.803478 862.640489 
L 594.855652 860.167836 
L 600.907826 826.03323 
L 606.96 814.962201 
L 613.012174 789.706893 
L 619.064348 789.628207 
L 625.116522 788.301945 
L 631.168696 784.132035 
L 637.22087 801.587139 
L 643.273043 785.109873 
L 649.325217 789.347218 
L 655.377391 791.786188 
L 661.429565 775.567479 
L 667.481739 781.277206 
L 673.533913 816.119911 
L 679.586087 839.116052 
L 685.638261 812.95034 
L 691.690435 830.394194 
L 697.742609 822.762473 
L 703.794783 793.494626 
L 709.846957 791.033155 
L 715.89913 787.987204 
L 721.951304 799.271788 
L 728.003478 787.177987 
L 734.055652 765.834031 
L 740.107826 760.427795 
L 752.212174 764.170526 
L 758.264348 762.844264 
L 764.316522 741.0957 
L 776.42087 738.915218 
L 782.473043 759.809563 
L 788.525217 752.245346 
L 794.577391 750.570659 
L 800.629565 737.824943 
L 806.681739 736.521182 
L 812.733913 733.711286 
L 818.786087 766.665749 
L 824.838261 756.314069 
L 830.890435 742.197157 
L 836.942609 740.286414 
L 842.994783 716.964281 
L 849.046957 697.890743 
L 855.09913 713.401353 
L 861.151304 709.18651 
L 867.203478 715.739205 
L 873.255652 716.031446 
L 879.307826 708.939203 
L 885.36 709.995727 
L 891.412174 707.568007 
L 897.464348 695.361838 
L 903.516522 704.488373 
L 909.568696 697.238829 
L 915.62087 681.75072 
L 921.673043 675.726252 
L 927.725217 667.588805 
L 933.777391 639.815773 
L 939.829565 609.379034 
L 945.881739 615.942912 
L 951.933913 614.223291 
L 957.986087 582.527656 
L 964.038261 564.904 
L 970.090435 435.446501 
L 976.142609 442.673544 
L 982.194783 420.835044 
L 988.246957 376.798301 
L 994.29913 335.256849 
L 1000.351304 228.941681 
L 1006.403478 270.067273 
L 1012.455652 223.018399 
L 1018.507826 204.978815 
L 1024.56 213.768245 
L 1030.612174 280.2504 
L 1036.664348 436.975068 
L 1042.716522 387.01518 
L 1048.768696 392.005489 
L 1054.82087 425.825353 
L 1060.873043 448.338269 
L 1066.925217 401.873875 
L 1072.977391 363.344554 
L 1079.029565 355.060988 
L 1085.081739 309.338307 
L 1091.133913 287.072766 
L 1097.186087 340.842889 
L 1103.238261 333.008933 
L 1109.290435 371.313379 
L 1115.342609 309.417061 
L 1121.394783 300.683884 
L 1127.446957 356.612055 
L 1133.49913 368.301248 
L 1139.551304 446.562464 
L 1145.603478 453.261211 
L 1151.655652 405.223248 
L 1157.707826 385.879971 
L 1163.76 459.117058 
L 1169.812174 444.247044 
L 1175.864348 501.141872 
L 1181.916522 510.021101 
L 1187.968696 490.374333 
L 1194.02087 545.526971 
L 1200.073043 539.17658 
L 1206.125217 575.851342 
L 1212.177391 532.477764 
L 1218.229565 453.418582 
L 1224.281739 388.082885 
L 1230.333913 357.803517 
L 1236.386087 363.951535 
L 1242.438261 366.514193 
L 1248.490435 384.328903 
L 1254.542609 399.569705 
L 1260.594783 238.843681 
L 1266.646957 295.255215 
L 1272.69913 364.344893 
L 1278.751304 390.668044 
L 1284.803478 433.086216 
L 1290.855652 398.06364 
L 1296.907826 391.005149 
L 1302.96 344.001277 
L 1309.012174 427.915899 
L 1315.064348 407.628535 
L 1321.116522 429.09611 
L 1327.168696 468.277276 
L 1333.22087 467.580428 
L 1339.273043 526.442114 
L 1345.325217 542.06516 
L 1351.377391 555.103048 
L 1357.429565 533.73666 
L 1363.481739 655.472572 
L 1369.533913 636.084292 
L 1375.586087 534.512194 
L 1381.638261 540.660213 
L 1387.690435 569.422334 
L 1393.742609 585.74216 
L 1399.794783 549.573193 
L 1405.846957 567.534023 
L 1411.89913 551.056826 
L 1417.951304 539.817244 
L 1424.003478 570.669911 
L 1430.055652 620.742235 
L 1436.107826 603.028643 
L 1442.16 550.573532 
L 1442.16 550.573532 
" style="fill:none;stroke:#008fd5;stroke-linecap:round;stroke-width:4;"/>
   </g>
   <g id="line2d_14">
    <path clip-path="url(#p33f5968528)" d="M 195.412174 766.238946 
L 201.464348 739.982074 
L 207.516522 856.633581 
L 213.568696 782.945972 
L 219.62087 816.759927 
L 225.673043 856.159208 
L 231.725217 828.815722 
L 237.777391 815.67021 
L 243.829565 856.613464 
L 255.933913 885.435362 
L 261.986087 954.535733 
L 268.038261 954.367421 
L 274.090435 941.264764 
L 280.142609 908.107218 
L 286.194783 960.459011 
L 292.246957 964.636364 
L 298.29913 930.589234 
L 304.351304 941.814503 
L 310.403478 896.825326 
L 316.455652 951.648774 
L 322.507826 904.728927 
L 328.56 909.831147 
L 334.612174 906.46689 
L 340.664348 864.139019 
L 346.716522 922.262166 
L 352.768696 942.489249 
L 358.82087 930.983685 
L 364.873043 879.223294 
L 370.925217 915.91596 
L 376.977391 884.894509 
L 383.029565 903.736932 
L 389.081739 885.651282 
L 395.133913 880.113136 
L 401.186087 919.860082 
L 407.238261 909.092839 
L 413.290435 915.333089 
L 419.342609 924.300163 
L 425.394783 857.804427 
L 431.446957 879.374179 
L 437.49913 851.440525 
L 443.551304 829.524664 
L 449.603478 818.072384 
L 455.655652 813.727982 
L 461.707826 812.597537 
L 467.76 846.237005 
L 473.812174 818.568999 
L 479.864348 809.676759 
L 485.916522 838.115046 
L 491.968696 865.839518 
L 498.02087 850.385108 
L 504.073043 810.243527 
L 510.125217 789.544769 
L 516.177391 844.897533 
L 522.229565 834.734414 
L 528.281739 864.720918 
L 534.333913 864.567789 
L 540.386087 863.094917 
L 546.438261 844.073876 
L 552.490435 871.956081 
L 558.542609 874.291391 
L 564.594783 855.233231 
L 570.646957 843.696719 
L 576.69913 831.103558 
L 582.751304 878.532978 
L 588.803478 843.472277 
L 594.855652 818.429822 
L 600.907826 797.714942 
L 606.96 787.340245 
L 613.012174 770.837308 
L 619.064348 790.655576 
L 625.116522 809.001148 
L 631.168696 792.562669 
L 637.22087 771.877245 
L 643.273043 807.503251 
L 649.325217 772.989704 
L 655.377391 743.638273 
L 661.429565 805.089109 
L 667.481739 814.832614 
L 673.533913 813.056457 
L 679.586087 829.31439 
L 685.638261 818.953531 
L 691.690435 810.929272 
L 697.742609 774.526177 
L 703.794783 792.396735 
L 709.846957 801.865578 
L 715.89913 771.057742 
L 721.951304 771.804452 
L 728.003478 796.358152 
L 734.055652 787.050545 
L 740.107826 735.584743 
L 746.16 781.606723 
L 752.212174 732.765105 
L 758.264348 707.800379 
L 764.316522 736.485079 
L 770.368696 756.83994 
L 776.42087 764.228549 
L 782.473043 737.929708 
L 788.525217 715.37007 
L 794.577391 731.123871 
L 800.629565 735.803195 
L 806.681739 768.759252 
L 812.733913 755.171327 
L 818.786087 720.108399 
L 824.838261 739.41748 
L 830.890435 716.026673 
L 836.942609 719.999844 
L 842.994783 705.620782 
L 849.046957 707.632833 
L 855.09913 702.671474 
L 861.151304 714.899884 
L 867.203478 706.245916 
L 873.255652 744.064504 
L 879.307826 696.680837 
L 885.36 680.423297 
L 891.412174 702.700892 
L 897.464348 672.947 
L 903.516522 662.123619 
L 909.568696 691.834476 
L 915.62087 663.370824 
L 921.673043 647.107728 
L 927.725217 609.937337 
L 933.777391 608.266789 
L 939.829565 615.622783 
L 945.881739 579.984689 
L 951.933913 550.962785 
L 957.986087 447.501101 
L 964.038261 433.546102 
L 970.090435 400.817124 
L 976.142609 369.032338 
L 982.194783 324.377958 
L 988.246957 188.253037 
L 994.29913 228.073806 
L 1000.351304 232.494779 
L 1006.403478 202.858028 
L 1012.455652 169.363636 
L 1018.507826 257.638518 
L 1024.56 291.625143 
L 1030.612174 394.827182 
L 1036.664348 369.487352 
L 1042.716522 382.261078 
L 1048.768696 409.529425 
L 1054.82087 301.518265 
L 1060.873043 400.68083 
L 1066.925217 311.348587 
L 1072.977391 292.745255 
L 1079.029565 295.644702 
L 1085.081739 401.454079 
L 1091.133913 483.667846 
L 1097.186087 318.800867 
L 1103.238261 315.029899 
L 1109.290435 337.382176 
L 1115.342609 380.750918 
L 1121.394783 318.870859 
L 1127.446957 409.763166 
L 1133.49913 445.855246 
L 1139.551304 361.650707 
L 1145.603478 365.23601 
L 1151.655652 506.027516 
L 1157.707826 437.334037 
L 1163.76 534.560113 
L 1169.812174 455.451817 
L 1175.864348 483.138074 
L 1181.916522 591.047232 
L 1187.968696 549.376484 
L 1194.02087 641.011169 
L 1200.073043 538.919138 
L 1206.125217 405.665847 
L 1212.177391 368.746404 
L 1218.229565 433.02414 
L 1224.281739 348.119372 
L 1230.333913 427.551369 
L 1236.386087 394.444206 
L 1242.438261 378.193708 
L 1248.490435 306.944391 
L 1254.542609 287.685642 
L 1260.594783 407.415024 
L 1266.646957 339.647781 
L 1272.69913 346.870345 
L 1278.751304 329.834871 
L 1284.803478 361.088625 
L 1290.855652 350.509866 
L 1296.907826 430.617224 
L 1302.96 425.117254 
L 1309.012174 444.039272 
L 1315.064348 317.147945 
L 1321.116522 514.676122 
L 1327.168696 583.406596 
L 1333.22087 564.804215 
L 1339.273043 591.927191 
L 1345.325217 502.023837 
L 1351.377391 650.162751 
L 1357.429565 598.94249 
L 1363.481739 605.800409 
L 1369.533913 522.596598 
L 1375.586087 588.181205 
L 1381.638261 619.852371 
L 1387.690435 549.171686 
L 1393.742609 621.369249 
L 1399.794783 566.558005 
L 1405.846957 553.126979 
L 1411.89913 549.870263 
L 1417.951304 732.62685 
L 1424.003478 582.786041 
L 1430.055652 440.141343 
L 1436.107826 555.798201 
L 1442.16 615.085084 
L 1442.16 615.085084 
" style="fill:none;stroke:#fc4f30;stroke-linecap:round;stroke-width:4;"/>
   </g>
   <g id="patch_3">
    <path d="M 126.72 1004.4 
L 126.72 129.6 
" style="fill:none;"/>
   </g>
   <g id="patch_4">
    <path d="M 1504.8 1004.4 
L 1504.8 129.6 
" style="fill:none;"/>
   </g>
   <g id="patch_5">
    <path d="M 126.72 1004.4 
L 1504.8 1004.4 
" style="fill:none;"/>
   </g>
   <g id="patch_6">
    <path d="M 126.72 129.6 
L 1504.8 129.6 
" style="fill:none;"/>
   </g>
   <g id="legend_1">
    <g id="line2d_15">
     <path d="M 1387.283125 147.937813 
L 1415.283125 147.937813 
" style="fill:none;stroke:#008fd5;stroke-linecap:round;stroke-width:4;"/>
    </g>
    <g id="line2d_16"/>
    <g id="text_13">
     <!-- Real -->
     <g style="fill:#262626;" transform="translate(1426.483125 152.837813)scale(0.14 -0.14)">
      <defs>
       <path d="M 44.390625 34.1875 
Q 47.5625 33.109375 50.5625 29.59375 
Q 53.5625 26.078125 56.59375 19.921875 
L 66.609375 0 
L 56 0 
L 46.6875 18.703125 
Q 43.0625 26.03125 39.671875 28.421875 
Q 36.28125 30.8125 30.421875 30.8125 
L 19.671875 30.8125 
L 19.671875 0 
L 9.8125 0 
L 9.8125 72.90625 
L 32.078125 72.90625 
Q 44.578125 72.90625 50.734375 67.671875 
Q 56.890625 62.453125 56.890625 51.90625 
Q 56.890625 45.015625 53.6875 40.46875 
Q 50.484375 35.9375 44.390625 34.1875 
z
M 19.671875 64.796875 
L 19.671875 38.921875 
L 32.078125 38.921875 
Q 39.203125 38.921875 42.84375 42.21875 
Q 46.484375 45.515625 46.484375 51.90625 
Q 46.484375 58.296875 42.84375 61.546875 
Q 39.203125 64.796875 32.078125 64.796875 
z
" id="DejaVuSans-82"/>
       <path d="M 56.203125 29.59375 
L 56.203125 25.203125 
L 14.890625 25.203125 
Q 15.484375 15.921875 20.484375 11.0625 
Q 25.484375 6.203125 34.421875 6.203125 
Q 39.59375 6.203125 44.453125 7.46875 
Q 49.3125 8.734375 54.109375 11.28125 
L 54.109375 2.78125 
Q 49.265625 0.734375 44.1875 -0.34375 
Q 39.109375 -1.421875 33.890625 -1.421875 
Q 20.796875 -1.421875 13.15625 6.1875 
Q 5.515625 13.8125 5.515625 26.8125 
Q 5.515625 40.234375 12.765625 48.109375 
Q 20.015625 56 32.328125 56 
Q 43.359375 56 49.78125 48.890625 
Q 56.203125 41.796875 56.203125 29.59375 
z
M 47.21875 32.234375 
Q 47.125 39.59375 43.09375 43.984375 
Q 39.0625 48.390625 32.421875 48.390625 
Q 24.90625 48.390625 20.390625 44.140625 
Q 15.875 39.890625 15.1875 32.171875 
z
" id="DejaVuSans-101"/>
       <path d="M 34.28125 27.484375 
Q 23.390625 27.484375 19.1875 25 
Q 14.984375 22.515625 14.984375 16.5 
Q 14.984375 11.71875 18.140625 8.90625 
Q 21.296875 6.109375 26.703125 6.109375 
Q 34.1875 6.109375 38.703125 11.40625 
Q 43.21875 16.703125 43.21875 25.484375 
L 43.21875 27.484375 
z
M 52.203125 31.203125 
L 52.203125 0 
L 43.21875 0 
L 43.21875 8.296875 
Q 40.140625 3.328125 35.546875 0.953125 
Q 30.953125 -1.421875 24.3125 -1.421875 
Q 15.921875 -1.421875 10.953125 3.296875 
Q 6 8.015625 6 15.921875 
Q 6 25.140625 12.171875 29.828125 
Q 18.359375 34.515625 30.609375 34.515625 
L 43.21875 34.515625 
L 43.21875 35.40625 
Q 43.21875 41.609375 39.140625 45 
Q 35.0625 48.390625 27.6875 48.390625 
Q 23 48.390625 18.546875 47.265625 
Q 14.109375 46.140625 10.015625 43.890625 
L 10.015625 52.203125 
Q 14.9375 54.109375 19.578125 55.046875 
Q 24.21875 56 28.609375 56 
Q 40.484375 56 46.34375 49.84375 
Q 52.203125 43.703125 52.203125 31.203125 
z
" id="DejaVuSans-97"/>
       <path d="M 9.421875 75.984375 
L 18.40625 75.984375 
L 18.40625 0 
L 9.421875 0 
z
" id="DejaVuSans-108"/>
      </defs>
      <use xlink:href="#DejaVuSans-82"/>
      <use x="64.982422" xlink:href="#DejaVuSans-101"/>
      <use x="126.505859" xlink:href="#DejaVuSans-97"/>
      <use x="187.785156" xlink:href="#DejaVuSans-108"/>
     </g>
    </g>
    <g id="line2d_17">
     <path d="M 1387.283125 168.487188 
L 1415.283125 168.487188 
" style="fill:none;stroke:#fc4f30;stroke-linecap:round;stroke-width:4;"/>
    </g>
    <g id="line2d_18"/>
    <g id="text_14">
     <!-- Predicted -->
     <g style="fill:#262626;" transform="translate(1426.483125 173.387188)scale(0.14 -0.14)">
      <defs>
       <path d="M 19.671875 64.796875 
L 19.671875 37.40625 
L 32.078125 37.40625 
Q 38.96875 37.40625 42.71875 40.96875 
Q 46.484375 44.53125 46.484375 51.125 
Q 46.484375 57.671875 42.71875 61.234375 
Q 38.96875 64.796875 32.078125 64.796875 
z
M 9.8125 72.90625 
L 32.078125 72.90625 
Q 44.34375 72.90625 50.609375 67.359375 
Q 56.890625 61.8125 56.890625 51.125 
Q 56.890625 40.328125 50.609375 34.8125 
Q 44.34375 29.296875 32.078125 29.296875 
L 19.671875 29.296875 
L 19.671875 0 
L 9.8125 0 
z
" id="DejaVuSans-80"/>
       <path d="M 41.109375 46.296875 
Q 39.59375 47.171875 37.8125 47.578125 
Q 36.03125 48 33.890625 48 
Q 26.265625 48 22.1875 43.046875 
Q 18.109375 38.09375 18.109375 28.8125 
L 18.109375 0 
L 9.078125 0 
L 9.078125 54.6875 
L 18.109375 54.6875 
L 18.109375 46.1875 
Q 20.953125 51.171875 25.484375 53.578125 
Q 30.03125 56 36.53125 56 
Q 37.453125 56 38.578125 55.875 
Q 39.703125 55.765625 41.0625 55.515625 
z
" id="DejaVuSans-114"/>
       <path d="M 45.40625 46.390625 
L 45.40625 75.984375 
L 54.390625 75.984375 
L 54.390625 0 
L 45.40625 0 
L 45.40625 8.203125 
Q 42.578125 3.328125 38.25 0.953125 
Q 33.9375 -1.421875 27.875 -1.421875 
Q 17.96875 -1.421875 11.734375 6.484375 
Q 5.515625 14.40625 5.515625 27.296875 
Q 5.515625 40.1875 11.734375 48.09375 
Q 17.96875 56 27.875 56 
Q 33.9375 56 38.25 53.625 
Q 42.578125 51.265625 45.40625 46.390625 
z
M 14.796875 27.296875 
Q 14.796875 17.390625 18.875 11.75 
Q 22.953125 6.109375 30.078125 6.109375 
Q 37.203125 6.109375 41.296875 11.75 
Q 45.40625 17.390625 45.40625 27.296875 
Q 45.40625 37.203125 41.296875 42.84375 
Q 37.203125 48.484375 30.078125 48.484375 
Q 22.953125 48.484375 18.875 42.84375 
Q 14.796875 37.203125 14.796875 27.296875 
z
" id="DejaVuSans-100"/>
       <path d="M 9.421875 54.6875 
L 18.40625 54.6875 
L 18.40625 0 
L 9.421875 0 
z
M 9.421875 75.984375 
L 18.40625 75.984375 
L 18.40625 64.59375 
L 9.421875 64.59375 
z
" id="DejaVuSans-105"/>
       <path d="M 48.78125 52.59375 
L 48.78125 44.1875 
Q 44.96875 46.296875 41.140625 47.34375 
Q 37.3125 48.390625 33.40625 48.390625 
Q 24.65625 48.390625 19.8125 42.84375 
Q 14.984375 37.3125 14.984375 27.296875 
Q 14.984375 17.28125 19.8125 11.734375 
Q 24.65625 6.203125 33.40625 6.203125 
Q 37.3125 6.203125 41.140625 7.25 
Q 44.96875 8.296875 48.78125 10.40625 
L 48.78125 2.09375 
Q 45.015625 0.34375 40.984375 -0.53125 
Q 36.96875 -1.421875 32.421875 -1.421875 
Q 20.0625 -1.421875 12.78125 6.34375 
Q 5.515625 14.109375 5.515625 27.296875 
Q 5.515625 40.671875 12.859375 48.328125 
Q 20.21875 56 33.015625 56 
Q 37.15625 56 41.109375 55.140625 
Q 45.0625 54.296875 48.78125 52.59375 
z
" id="DejaVuSans-99"/>
       <path d="M 18.3125 70.21875 
L 18.3125 54.6875 
L 36.8125 54.6875 
L 36.8125 47.703125 
L 18.3125 47.703125 
L 18.3125 18.015625 
Q 18.3125 11.328125 20.140625 9.421875 
Q 21.96875 7.515625 27.59375 7.515625 
L 36.8125 7.515625 
L 36.8125 0 
L 27.59375 0 
Q 17.1875 0 13.234375 3.875 
Q 9.28125 7.765625 9.28125 18.015625 
L 9.28125 47.703125 
L 2.6875 47.703125 
L 2.6875 54.6875 
L 9.28125 54.6875 
L 9.28125 70.21875 
z
" id="DejaVuSans-116"/>
      </defs>
      <use xlink:href="#DejaVuSans-80"/>
      <use x="58.552734" xlink:href="#DejaVuSans-114"/>
      <use x="97.416016" xlink:href="#DejaVuSans-101"/>
      <use x="158.939453" xlink:href="#DejaVuSans-100"/>
      <use x="222.416016" xlink:href="#DejaVuSans-105"/>
      <use x="250.199219" xlink:href="#DejaVuSans-99"/>
      <use x="305.179688" xlink:href="#DejaVuSans-116"/>
      <use x="344.388672" xlink:href="#DejaVuSans-101"/>
      <use x="405.912109" xlink:href="#DejaVuSans-100"/>
     </g>
    </g>
    <g id="PathCollection_3">
     <g>
      <use style="fill:#00ff00;stroke:#00ff00;stroke-width:0.5;" x="1401.283125" xlink:href="#mb9a63b5fd6" y="190.261563"/>
     </g>
    </g>
    <g id="text_15">
     <!-- Buy -->
     <g style="fill:#262626;" transform="translate(1426.483125 193.936563)scale(0.14 -0.14)">
      <defs>
       <path d="M 19.671875 34.8125 
L 19.671875 8.109375 
L 35.5 8.109375 
Q 43.453125 8.109375 47.28125 11.40625 
Q 51.125 14.703125 51.125 21.484375 
Q 51.125 28.328125 47.28125 31.5625 
Q 43.453125 34.8125 35.5 34.8125 
z
M 19.671875 64.796875 
L 19.671875 42.828125 
L 34.28125 42.828125 
Q 41.5 42.828125 45.03125 45.53125 
Q 48.578125 48.25 48.578125 53.8125 
Q 48.578125 59.328125 45.03125 62.0625 
Q 41.5 64.796875 34.28125 64.796875 
z
M 9.8125 72.90625 
L 35.015625 72.90625 
Q 46.296875 72.90625 52.390625 68.21875 
Q 58.5 63.53125 58.5 54.890625 
Q 58.5 48.1875 55.375 44.234375 
Q 52.25 40.28125 46.1875 39.3125 
Q 53.46875 37.75 57.5 32.78125 
Q 61.53125 27.828125 61.53125 20.40625 
Q 61.53125 10.640625 54.890625 5.3125 
Q 48.25 0 35.984375 0 
L 9.8125 0 
z
" id="DejaVuSans-66"/>
       <path d="M 8.5 21.578125 
L 8.5 54.6875 
L 17.484375 54.6875 
L 17.484375 21.921875 
Q 17.484375 14.15625 20.5 10.265625 
Q 23.53125 6.390625 29.59375 6.390625 
Q 36.859375 6.390625 41.078125 11.03125 
Q 45.3125 15.671875 45.3125 23.6875 
L 45.3125 54.6875 
L 54.296875 54.6875 
L 54.296875 0 
L 45.3125 0 
L 45.3125 8.40625 
Q 42.046875 3.421875 37.71875 1 
Q 33.40625 -1.421875 27.6875 -1.421875 
Q 18.265625 -1.421875 13.375 4.4375 
Q 8.5 10.296875 8.5 21.578125 
z
M 31.109375 56 
z
" id="DejaVuSans-117"/>
       <path d="M 32.171875 -5.078125 
Q 28.375 -14.84375 24.75 -17.8125 
Q 21.140625 -20.796875 15.09375 -20.796875 
L 7.90625 -20.796875 
L 7.90625 -13.28125 
L 13.1875 -13.28125 
Q 16.890625 -13.28125 18.9375 -11.515625 
Q 21 -9.765625 23.484375 -3.21875 
L 25.09375 0.875 
L 2.984375 54.6875 
L 12.5 54.6875 
L 29.59375 11.921875 
L 46.6875 54.6875 
L 56.203125 54.6875 
z
" id="DejaVuSans-121"/>
      </defs>
      <use xlink:href="#DejaVuSans-66"/>
      <use x="68.603516" xlink:href="#DejaVuSans-117"/>
      <use x="131.982422" xlink:href="#DejaVuSans-121"/>
     </g>
    </g>
    <g id="PathCollection_4">
     <g>
      <use style="fill:#ff0000;stroke:#ff0000;stroke-width:0.5;" x="1401.283125" xlink:href="#m16f01a408b" y="210.810938"/>
     </g>
    </g>
    <g id="text_16">
     <!-- Sell -->
     <g style="fill:#262626;" transform="translate(1426.483125 214.485938)scale(0.14 -0.14)">
      <defs>
       <path d="M 53.515625 70.515625 
L 53.515625 60.890625 
Q 47.90625 63.578125 42.921875 64.890625 
Q 37.9375 66.21875 33.296875 66.21875 
Q 25.25 66.21875 20.875 63.09375 
Q 16.5 59.96875 16.5 54.203125 
Q 16.5 49.359375 19.40625 46.890625 
Q 22.3125 44.4375 30.421875 42.921875 
L 36.375 41.703125 
Q 47.40625 39.59375 52.65625 34.296875 
Q 57.90625 29 57.90625 20.125 
Q 57.90625 9.515625 50.796875 4.046875 
Q 43.703125 -1.421875 29.984375 -1.421875 
Q 24.8125 -1.421875 18.96875 -0.25 
Q 13.140625 0.921875 6.890625 3.21875 
L 6.890625 13.375 
Q 12.890625 10.015625 18.65625 8.296875 
Q 24.421875 6.59375 29.984375 6.59375 
Q 38.421875 6.59375 43.015625 9.90625 
Q 47.609375 13.234375 47.609375 19.390625 
Q 47.609375 24.75 44.3125 27.78125 
Q 41.015625 30.8125 33.5 32.328125 
L 27.484375 33.5 
Q 16.453125 35.6875 11.515625 40.375 
Q 6.59375 45.0625 6.59375 53.421875 
Q 6.59375 63.09375 13.40625 68.65625 
Q 20.21875 74.21875 32.171875 74.21875 
Q 37.3125 74.21875 42.625 73.28125 
Q 47.953125 72.359375 53.515625 70.515625 
z
" id="DejaVuSans-83"/>
      </defs>
      <use xlink:href="#DejaVuSans-83"/>
      <use x="63.476562" xlink:href="#DejaVuSans-101"/>
      <use x="125" xlink:href="#DejaVuSans-108"/>
      <use x="152.783203" xlink:href="#DejaVuSans-108"/>
     </g>
    </g>
   </g>
  </g>
 </g>
 <defs>
  <clipPath id="p33f5968528">
   <rect height="874.8" width="1378.08" x="126.72" y="129.6"/>
  </clipPath>
 </defs>
</svg>
